<svg width="416" height="295" viewBox="0 0 416 295" fill="none" xmlns="http://www.w3.org/2000/svg">
<path d="M206.252 56.7868H162.934V114.261H206.252V56.7868Z" fill="#FFD817"/>
<path d="M167.842 66.8995H176.335" stroke="#FFA200" stroke-width="0.879" stroke-miterlimit="10"/>
<path d="M167.842 75.3788H199.74" stroke="#FFA200" stroke-width="0.879" stroke-miterlimit="10"/>
<path d="M167.842 83.8582H199.74" stroke="#FFA200" stroke-width="0.879" stroke-miterlimit="10"/>
<path d="M167.842 92.3376H199.74" stroke="#FFA200" stroke-width="0.879" stroke-miterlimit="10"/>
<path d="M167.842 100.817H199.74" stroke="#FFA200" stroke-width="0.879" stroke-miterlimit="10"/>
<path d="M24.6988 93.4829C24.6988 93.4829 30.7356 75.2269 33.1496 68.3467C35.5636 61.4666 37.1987 47.2496 28.9099 45.6587C20.622 44.0678 17.2699 55.7676 17.3546 66.7218C17.4402 77.6437 24.6988 93.4829 24.6988 93.4829Z" fill="#FF7700"/>
<path d="M23.2561 122.752C23.2561 122.752 17.2432 87.7388 6.25502 91.4666C-4.73409 95.1935 5.70354 119.658 23.2561 122.752Z" fill="#FF7700"/>
<path d="M28.7635 110.942C28.7635 110.942 27.7664 99.0317 33.0437 88.6383C38.3209 78.2448 44.9387 79.3229 46.2672 84.0607C49.1701 94.4146 32.7932 104.204 28.7635 110.942Z" fill="#FF7700"/>
<path d="M31.6232 140.005C31.6232 140.005 31.2503 129.739 34.9229 117.319C38.5954 104.899 48.3794 100.935 53.4541 106.853C56.1535 110 52.6071 123.555 43.9187 129.709C36.6196 134.881 31.6232 140.005 31.6232 140.005Z" fill="#FF7700"/>
<path d="M28.945 149.172C28.945 149.172 22.6061 132.65 13.6591 128.589C4.71202 124.528 2.32381 130.867 4.58681 137.394C6.8489 143.922 15.5658 149.886 28.945 149.172Z" fill="#FF7700"/>
<path d="M28.1015 46.6189C28.1015 46.6189 16.9127 100.033 34.8491 162.889" stroke="#995417" stroke-width="1.0223" stroke-miterlimit="10"/>
<path d="M46.8205 109.056C46.5296 109.352 33.5942 129.875 30.3479 144.584" stroke="#995417" stroke-width="1.0223" stroke-miterlimit="10"/>
<path d="M7.79614 131.448C7.79614 131.448 12.2236 140.363 31.6875 150.671" stroke="#995417" stroke-width="1.0223" stroke-miterlimit="10"/>
<path d="M5.47144 95.5341C6.9353 105.271 11.3784 115.631 26.9829 124.593" stroke="#995417" stroke-width="1.0223" stroke-miterlimit="10"/>
<path d="M42.6314 83.257C42.6314 83.257 32.7978 94.2949 26.342 119.264" stroke="#995417" stroke-width="1.0223" stroke-miterlimit="10"/>
<path d="M402.283 153.174C402.283 153.174 400.715 141.158 400.038 136.613C399.361 132.068 400.038 123.075 405.357 123.075C410.676 123.075 411.361 130.715 410.007 137.484C408.656 144.233 402.283 153.174 402.283 153.174Z" fill="#FF7700"/>
<path d="M399.7 171.462C399.7 171.462 407.581 150.505 413.939 154.117C420.297 157.73 410.931 171.631 399.7 171.462Z" fill="#FF7700"/>
<path d="M397.693 163.498C397.693 163.498 399.725 156.245 397.693 149.185C395.661 142.126 391.437 142.007 390.052 144.781C387.025 150.844 395.999 158.849 397.693 163.498Z" fill="#FF7700"/>
<path d="M405.743 123.765C405.743 123.765 406.323 158.154 387.756 194.928" stroke="#995417" stroke-width="1.0223" stroke-miterlimit="10"/>
<path d="M413.939 156.728C411.876 162.581 407.896 168.466 397.173 172.159" stroke="#995417" stroke-width="1.0223" stroke-miterlimit="10"/>
<path d="M392.398 144.715C392.398 144.715 397.174 152.715 398.203 168.936" stroke="#995417" stroke-width="1.0223" stroke-miterlimit="10"/>
<path d="M340.949 98.2307C350.179 98.2307 379.676 98.2307 385.738 98.2307C391.798 98.2307 397.052 98.8365 397.456 96.0082C397.86 93.18 393.541 92.5732 391.761 90.1491C389.98 87.725 390.587 79.2392 383.111 79.2392C375.635 79.2392 373.706 85.2484 370.832 84.1629C367.958 83.0774 366.341 70.1476 359.068 70.3492C351.794 70.5508 347.48 87.2932 343.641 85.9057C339.802 84.5192 332.399 85.0974 331.59 89.9466C330.782 94.7957 316.699 92.3937 316.247 96.2099C315.795 100.026 330.103 98.2307 340.949 98.2307Z" fill="#A6B1ED"/>
<path d="M328.535 116.637C331.174 117.115 333.491 117.87 335.482 118.903C337.476 119.938 339.146 121.12 340.493 122.444C341.837 123.769 342.861 125.162 343.561 126.621C344.261 128.08 344.666 129.444 344.773 130.718C344.825 131.354 344.625 131.87 344.168 132.268C343.708 132.667 343.184 132.865 342.591 132.865H336.935C336.02 132.865 335.333 132.693 334.876 132.348C334.418 132.004 333.998 131.54 333.623 130.956C332.816 129.631 331.59 128.477 329.947 127.495C328.303 126.515 325.869 126.023 322.635 126.023C321.236 126.023 319.901 126.169 318.637 126.461C317.372 126.753 316.268 127.178 315.325 127.734C314.381 128.291 313.641 128.966 313.104 129.762C312.564 130.556 312.296 131.46 312.296 132.466C312.296 133.687 312.591 134.68 313.184 135.45C313.776 136.219 314.73 136.88 316.052 137.438C317.372 137.995 319.067 138.513 321.141 138.99C323.215 139.467 325.731 140.023 328.696 140.659C331.928 141.349 334.661 142.159 336.896 143.085C339.13 144.014 340.962 145.127 342.388 146.426C343.815 147.727 344.84 149.224 345.46 150.921C346.077 152.618 346.389 154.554 346.389 156.727C346.389 158.795 345.984 160.732 345.178 162.534C344.369 164.337 343.198 165.954 341.665 167.385C340.128 168.817 338.256 170.011 336.049 170.965C333.84 171.92 331.337 172.582 328.535 172.954V178.364C328.535 178.947 328.319 179.45 327.89 179.875C327.459 180.299 326.946 180.511 326.354 180.511H319.812C319.22 180.511 318.707 180.299 318.277 179.875C317.845 179.45 317.63 178.947 317.63 178.364V172.954C315.205 172.582 312.931 171.96 310.802 171.085C308.675 170.211 306.816 169.136 305.229 167.863C303.64 166.59 302.36 165.119 301.391 163.448C300.421 161.777 299.884 159.936 299.776 157.921C299.721 157.283 299.923 156.767 300.381 156.369C300.838 155.971 301.363 155.773 301.958 155.773H307.614C308.528 155.773 309.228 155.931 309.713 156.25C310.198 156.568 310.602 157.045 310.925 157.682C311.3 158.371 311.759 159.061 312.3 159.75C312.838 160.439 313.565 161.049 314.479 161.579C315.396 162.11 316.54 162.548 317.913 162.891C319.288 163.237 320.997 163.41 323.044 163.41C324.661 163.41 326.22 163.29 327.729 163.051C329.236 162.813 330.559 162.415 331.688 161.858C332.821 161.301 333.735 160.613 334.435 159.79C335.134 158.968 335.484 157.949 335.484 156.728C335.484 155.562 335.107 154.607 334.354 153.864C333.6 153.122 332.455 152.486 330.921 151.955C329.387 151.425 327.487 150.922 325.226 150.444C322.965 149.966 320.35 149.357 317.389 148.614C314.695 147.978 312.341 147.221 310.322 146.347C308.3 145.472 306.631 144.398 305.312 143.125C303.993 141.852 303.01 140.355 302.363 138.631C301.718 136.908 301.394 134.852 301.394 132.466C301.394 130.398 301.799 128.489 302.605 126.738C303.415 124.989 304.532 123.412 305.959 122.005C307.386 120.6 309.095 119.434 311.09 118.505C313.081 117.579 315.263 116.902 317.632 116.477V111.068C317.632 110.485 317.848 109.981 318.28 109.557C318.71 109.132 319.221 108.92 319.814 108.92H326.357C326.949 108.92 327.461 109.132 327.893 109.557C328.323 109.981 328.538 110.485 328.538 111.068V116.637H328.535Z" fill="#FFEB8A"/>
<path d="M273.947 265.595H402.536C402.536 265.595 409.595 264.591 405.605 257.267C401.616 249.943 399.467 249.943 404.378 234.292C409.287 218.641 418.188 189.777 411.129 188.25C404.07 186.724 396.398 208.902 387.498 209.782C378.598 210.662 398.546 133.501 376.757 132.799C354.967 132.098 345.76 184.576 338.088 193.782C330.417 202.989 319.24 187.303 310.966 199.193C302.693 211.084 304.996 249.594 296.887 245.648C283.332 239.053 273.947 265.595 273.947 265.595Z" fill="#8EAD46"/>
<path d="M376.758 132.798C376.758 132.798 362.178 218.641 341.617 265.594" stroke="#525730" stroke-width="0.8771" stroke-miterlimit="10"/>
<path d="M411.13 188.25C411.13 188.25 390.566 241.349 366.168 265.595" stroke="#525730" stroke-width="0.8771" stroke-miterlimit="10"/>
<path d="M315.559 195.199C315.559 195.199 328.421 230.53 327.961 265.595" stroke="#525730" stroke-width="0.8771" stroke-miterlimit="10"/>
<path d="M282.648 250.17C282.648 250.17 285.763 258.687 291.748 265.594" stroke="#525730" stroke-width="0.8771" stroke-miterlimit="10"/>
<path d="M308.704 203.7C308.704 203.7 312.05 206.23 320.35 210.978" stroke="#525730" stroke-width="0.8771" stroke-miterlimit="10"/>
<path d="M305.247 218.642C305.247 218.642 313.668 231.761 326.453 241.582" stroke="#525730" stroke-width="0.8771" stroke-miterlimit="10"/>
<path d="M340.743 189.188C340.743 189.188 339.075 226.351 348.364 248.314" stroke="#525730" stroke-width="0.8771" stroke-miterlimit="10"/>
<path d="M354.136 155.04C354.136 155.04 352.819 195.199 359.687 210.979" stroke="#525730" stroke-width="0.8771" stroke-miterlimit="10"/>
<path d="M385.544 191.168C385.544 191.168 372.022 218.79 353.828 231.605" stroke="#525730" stroke-width="0.8771" stroke-miterlimit="10"/>
<path d="M387.387 160.256C387.387 160.256 376.3 171.231 367.436 179.208" stroke="#525730" stroke-width="0.8771" stroke-miterlimit="10"/>
<path d="M366.168 137.02L371.511 160.256" stroke="#525730" stroke-width="0.8771" stroke-miterlimit="10"/>
<path d="M412.455 204.913C412.455 204.913 405.591 213.041 397.388 218.641" stroke="#525730" stroke-width="0.8771" stroke-miterlimit="10"/>
<path d="M404.378 234.292C404.378 234.292 387.989 249.834 374.547 256.027" stroke="#525730" stroke-width="0.8771" stroke-miterlimit="10"/>
<path d="M415.49 265.595H262.248" stroke="black" stroke-width="0.9556" stroke-miterlimit="10"/>
<path d="M52.4588 202.322V191.179L45.4304 191.554C44.9802 189.887 44.3256 188.308 43.4841 186.844L48.7172 182.142L40.8381 174.263L36.1363 179.496C34.6724 178.654 33.0935 178 31.4261 177.549L31.8018 170.521H20.658L21.0336 177.549C19.3663 177.999 17.7873 178.654 16.3235 179.496L11.6216 174.263L3.74252 182.142L8.97561 186.844C8.13319 188.307 7.47952 189.887 7.02931 191.554L0 191.179V202.322L7.02931 201.946C7.47952 203.613 8.13411 205.192 8.97561 206.656L3.74252 211.358L11.6216 219.237L16.3235 214.004C17.7873 214.846 19.3663 215.5 21.0336 215.95L20.658 222.98H31.8008L31.4252 215.95C33.0925 215.5 34.6715 214.845 36.1353 214.004L40.8363 219.237L48.7154 211.358L43.4823 206.656C44.3238 205.192 44.9784 203.613 45.4286 201.946L52.4588 202.322ZM26.2299 206.484C20.8541 206.484 16.4966 202.126 16.4966 196.751C16.4966 191.375 20.855 187.017 26.2299 187.017C31.6057 187.017 35.9632 191.375 35.9632 196.751C35.9632 202.126 31.6057 206.484 26.2299 206.484Z" fill="#D4DAFF"/>
<path d="M142.702 129.105V116.397L134.686 116.826C134.172 114.925 133.426 113.124 132.466 111.455L138.434 106.093L129.448 97.1075L124.086 103.075C122.417 102.115 120.616 101.368 118.715 100.855L119.144 92.8384H106.436L106.865 100.855C104.964 101.368 103.162 102.114 101.493 103.075L96.1309 97.1075L87.1452 106.093L93.113 111.455C92.1527 113.124 91.406 114.925 90.8932 116.826L82.877 116.397V129.105L90.8932 128.676C91.407 130.578 92.1527 132.379 93.113 134.048L87.1452 139.41L96.1309 148.395L101.493 142.427C103.162 143.388 104.963 144.134 106.865 144.647L106.436 152.663H119.144L118.715 144.647C120.616 144.133 122.418 143.388 124.087 142.427L129.449 148.395L138.435 139.41L132.467 134.048C133.427 132.378 134.174 130.578 134.687 128.676L142.702 129.105ZM112.79 133.852C106.659 133.852 101.689 128.883 101.689 122.752C101.689 116.621 106.659 111.651 112.79 111.651C118.92 111.651 123.89 116.621 123.89 122.752C123.89 128.882 118.92 133.852 112.79 133.852Z" fill="#D4DAFF"/>
<path d="M31.6342 260.739H298.628C298.628 260.739 284.818 240.462 264.564 235.188C244.309 229.913 238.309 238.641 226.808 219.316C215.308 199.991 204.72 188.071 190.91 187.586C177.1 187.102 154.378 201.868 128.735 186.014C98.6894 167.437 74.2916 183.64 72.9106 207.985C71.5296 232.329 25.6499 224.355 31.6342 260.739Z" fill="#ECFFBF"/>
<path d="M202.955 260.739C202.955 260.739 208.093 246.134 212.906 247.18C217.718 248.227 220.932 255.368 226.52 249.672C232.106 243.975 229.338 224.1 239.388 222.411C249.438 220.721 243.813 244.678 250.384 240.639C258.471 235.668 266.903 209.287 277.114 211.716C287.325 214.145 287.111 260.74 287.111 260.74H202.955V260.739Z" fill="#598048"/>
<path d="M172.073 260.739L211.048 184.125L233.612 192.281L260.097 133.421L286.614 143.241L321.182 62.8365L335.646 68.054V24.475L294.216 54.8571L308.121 59.1539L273.364 111.018L242.965 95.9806L203.069 152.609L170.232 136.271L95.4412 260.739H172.073Z" fill="#FFD817"/>
<path d="M8.03659 261.031C8.03659 261.031 -3.03354 219.58 5.21105 218.364C13.4556 217.148 12.5166 227.094 20.4794 226.648C28.4423 226.203 15.6201 154.135 34.5344 151.118C53.4477 148.101 64.7535 220.056 74.2382 212.731C83.722 205.405 103.842 165.582 106.608 260.688L8.03659 261.031Z" fill="#8EAD46"/>
<path d="M34.5334 151.118C34.5334 151.118 38.4003 214.88 54.3822 261.031" stroke="#525730" stroke-width="0.9512" stroke-miterlimit="10"/>
<path d="M40.5517 152.672C40.5517 152.672 38.9138 165.261 36.416 172.066" stroke="#525730" stroke-width="0.9512" stroke-miterlimit="10"/>
<path d="M24.5037 169.83C24.5037 169.83 25.95 175.754 38.9213 192.041" stroke="#525730" stroke-width="0.9512" stroke-miterlimit="10"/>
<path d="M56.6729 180.31C56.6729 180.31 54.0601 223.305 46.9019 234.954" stroke="#525730" stroke-width="0.9512" stroke-miterlimit="10"/>
<path d="M5.21021 218.364C5.21021 218.364 11.0334 236.848 31.7126 261.031" stroke="#525730" stroke-width="0.9512" stroke-miterlimit="10"/>
<path d="M23.3997 197.849C23.3997 197.849 31.1075 225.997 51.0695 250.654" stroke="#525730" stroke-width="0.9512" stroke-miterlimit="10"/>
<path d="M14.5659 224.167C14.5659 224.167 16.3806 232.016 17.0784 241.473" stroke="#525730" stroke-width="0.9512" stroke-miterlimit="10"/>
<path d="M3.59619 240.534C3.59619 240.534 13.0542 247.21 26.4822 254.645" stroke="#525730" stroke-width="0.9512" stroke-miterlimit="10"/>
<path d="M5.13257 260.739H273.947" stroke="#292E4A" stroke-width="1.0223" stroke-miterlimit="10"/>
<path d="M64.9607 294.495C56.972 294.495 50.4712 287.996 50.4712 280.007V137.433C50.4712 129.443 56.9711 122.944 64.9607 122.944H127.183C135.172 122.944 141.673 129.444 141.673 137.433V280.007C141.673 287.995 135.173 294.495 127.183 294.495H64.9607Z" fill="#3747A3"/>
<path d="M72.0718 294.495C64.0831 294.495 57.5823 287.996 57.5823 280.007V137.433C57.5823 129.443 64.0822 122.944 72.0718 122.944H134.294C142.283 122.944 148.784 129.444 148.784 137.433V280.007C148.784 287.995 142.284 294.495 134.294 294.495H72.0718Z" fill="#4A60DB"/>
<path d="M134.294 127.342H119.828C119.062 127.342 118.384 127.841 118.158 128.573L117.489 130.729C117.117 131.927 116.009 132.745 114.753 132.745H91.6129C90.3581 132.745 89.2487 131.927 88.8767 130.729L88.2083 128.573C87.9818 127.841 87.3042 127.342 86.5382 127.342H72.0717C66.4989 127.342 61.9812 131.86 61.9812 137.433V280.007C61.9812 285.58 66.4989 290.097 72.0717 290.097H134.294C139.867 290.097 144.385 285.58 144.385 280.007V137.433C144.385 131.86 139.867 127.342 134.294 127.342Z" fill="#292E4A"/>
<path d="M109.598 129.322H96.769C96.3841 129.322 96.072 129.01 96.072 128.625C96.072 128.24 96.3841 127.928 96.769 127.928H109.598C109.983 127.928 110.295 128.24 110.295 128.625C110.295 129.011 109.983 129.322 109.598 129.322Z" fill="#292E4A"/>
<path d="M53.6245 151.829V173.089" stroke="white" stroke-width="1.4467" stroke-miterlimit="10" stroke-linecap="round" stroke-linejoin="round"/>
<path d="M53.6245 179.725V189.659" stroke="white" stroke-width="1.4467" stroke-miterlimit="10" stroke-linecap="round" stroke-linejoin="round"/>
<path d="M252.631 287.888L269.438 191.724H393.526L376.719 287.888H252.631Z" fill="#4A60DB"/>
<path d="M373.317 283.827H257.48L272.841 195.785H388.678L373.317 283.827Z" fill="#292E4A"/>
<path d="M377.21 287.888H170.538V294.821H377.21V287.888Z" fill="#3747A3"/>
<path d="M265.48 287.888H170.538V294.821H265.48V287.888Z" fill="#4A60DB"/>
<path d="M377.21 287.888H170.538" stroke="#3747A3" stroke-width="0.9823" stroke-miterlimit="10"/>
<path d="M345.903 263.442C345.903 263.442 347.207 267.048 346.747 268.812C346.287 270.577 344.906 272.111 344.829 274.72C344.753 277.329 345.004 281.932 345.838 282.086C346.671 282.239 346.1 278.633 346.846 278.327C347.591 278.02 350.123 283.629 350.123 283.629H357.642C357.642 283.629 355.034 267.432 354.65 264.67C354.265 261.907 345.903 263.442 345.903 263.442Z" fill="#F9B989"/>
<path d="M218.16 220.171C218.16 220.171 206.037 219.174 202.969 218.406C199.9 217.639 191.844 220.171 191.844 220.171L205.343 231.286C205.343 231.286 208.723 229.165 212.406 228.542C216.088 227.92 218.62 228.15 218.62 228.15L218.16 220.171Z" fill="#F9B989"/>
<path d="M270.09 150.714C269.939 153.762 269.12 161.359 269.591 164.882C270.061 168.404 271.903 170.866 275.571 170.297C279.239 169.728 282.503 185.225 282.503 185.225L290.388 186.403L296.085 177.756L290.756 168.271C290.756 168.271 294.616 157.799 292.601 151.654C290.585 145.51 276 140.685 270.532 142.689C265.064 144.693 270.09 150.714 270.09 150.714Z" fill="#F9B989"/>
<path d="M277.841 176.844L286.903 180.428L288.821 184.571V179.277L295.589 172.142L297.376 176.055L315.444 247.637H288.515L272.748 184.571L277.466 181.464L277.841 176.844Z" fill="#FF7700"/>
<path d="M330.23 283.628H275.239L285.523 247.637H327.287L330.23 283.628Z" fill="white"/>
<path d="M277.467 181.464C280.152 188.791 292.236 239.735 294.097 246.64C295.957 253.545 297.032 272.572 297.032 272.572C297.032 272.572 281.074 272.879 277.467 272.572C273.861 272.266 278.618 250.17 278.465 245.106C278.311 240.042 268.644 213.803 268.644 213.803C268.644 213.803 250.537 229.608 247.775 229.915C245.013 230.222 216.472 229.148 216.472 229.148V219.174C216.472 219.174 240.41 217.793 243.018 216.412C245.626 215.031 261.431 196.772 265.268 192.168C269.103 187.563 272.633 181.655 277.467 181.464Z" fill="#6470B5"/>
<path d="M262.851 202.524C260.78 202.754 258.593 215.874 255.946 219.672C254.263 222.087 251.84 225.8 250.384 228.542C256.216 224.65 268.644 213.802 268.644 213.802C267.454 211.04 264.923 202.294 262.851 202.524Z" fill="#495285"/>
<path d="M345.283 265.632H355.724L351.615 242.585C350.288 234.082 347.558 225.863 343.527 218.259C336.693 205.367 326.031 186.097 321.658 182.729C318.775 180.508 305.777 175.594 297.375 176.054C297.375 176.054 306.927 234.747 308.308 243.953C309.689 253.16 315.444 271.343 315.444 271.343H334.743L330.23 244.926L325.111 220.246L336.011 234.898L345.283 265.632Z" fill="#6470B5"/>
<path d="M325.111 220.247C325.111 220.247 318.551 211.155 317.055 206.092C315.559 201.028 314.754 194.008 315.444 192.052C316.135 190.095 313.833 189.29 312.797 197.691C311.761 206.092 311.761 213.572 316.825 221.858C321.889 230.144 318.321 234.978 322.349 242.343C326.377 249.708 331.543 252.608 331.543 252.608L325.111 220.247Z" fill="#495285"/>
<path d="M263.482 141.798C266.114 136.068 272.415 139.49 279.376 140.314C286.337 141.137 292.828 142.023 295.084 146.98C297.338 151.937 294.543 162.029 290.756 168.271C290.756 168.271 287.697 164.456 287.666 161.832C287.635 159.208 290.755 157.516 289.46 154.981C288.166 152.445 286.309 154.047 285.896 155.138C285.484 156.229 285.239 157.376 284.764 156.803C284.289 156.229 285.171 153.881 284.909 151.924C284.648 149.968 283.703 147.067 279.331 147.73C274.959 148.393 270.366 147.413 270.366 147.413L270.09 150.716C270.089 150.714 260.519 148.248 263.482 141.798Z" fill="black"/>
<path d="M68.2273 44.5751C82.609 44.5751 155.362 44.5751 171.718 44.5751C188.074 44.5751 194.841 42.5183 186.381 36.6426C177.921 30.7669 175.384 30.4732 172.564 24.5975C169.744 18.7217 163.258 14.9019 154.234 16.0776C145.211 17.2524 139.116 20.4848 132.153 13.4334C125.19 6.38201 118.704 -4.48833 101.785 1.97569C84.1493 8.71315 83.2986 24.8911 69.0743 28.1236C54.8481 31.3542 39.182 44.5751 68.2273 44.5751Z" fill="#A6B1ED"/>
<path d="M153.841 178.327C153.841 178.327 160.024 177.246 162.421 170.106C164.818 162.965 171.344 155.507 182.797 156.573C194.25 157.638 200.043 165.987 198.479 178.327C196.915 190.667 186.343 192.517 178.511 192.391C170.678 192.265 165.299 184.141 161.929 181.478C158.559 178.813 153.841 178.327 153.841 178.327Z" fill="#4A60DB"/>
<path d="M189.855 176.31V172.556L187.487 172.683C187.335 172.122 187.115 171.59 186.832 171.097L188.595 169.514L185.94 166.859L184.357 168.622C183.864 168.339 183.332 168.119 182.771 167.967L182.898 165.599H179.144L179.271 167.967C178.709 168.119 178.177 168.339 177.685 168.622L176.101 166.859L173.447 169.514L175.21 171.097C174.926 171.59 174.705 172.122 174.554 172.683L172.187 172.556V176.31L174.554 176.183C174.706 176.745 174.926 177.277 175.21 177.769L173.447 179.353L176.101 182.007L177.685 180.244C178.177 180.528 178.709 180.748 179.271 180.899L179.144 183.267H182.898L182.771 180.899C183.332 180.748 183.864 180.528 184.357 180.244L185.94 182.007L188.595 179.353L186.832 177.769C187.115 177.277 187.336 176.745 187.487 176.183L189.855 176.31ZM181.02 177.712C179.209 177.712 177.742 176.245 177.742 174.434C177.742 172.623 179.209 171.155 181.02 171.155C182.831 171.155 184.299 172.623 184.299 174.434C184.299 176.245 182.831 177.712 181.02 177.712Z" fill="white"/>
<path d="M242.76 46.9357H214.747V84.104H242.76V46.9357Z" fill="#FFEB8A"/>
<path d="M217.92 53.4752H223.413" stroke="#FFA200" stroke-width="0.7146" stroke-miterlimit="10"/>
<path d="M217.92 58.9587H238.549" stroke="#FFA200" stroke-width="0.7146" stroke-miterlimit="10"/>
<path d="M217.92 64.4422H238.549" stroke="#FFA200" stroke-width="0.7146" stroke-miterlimit="10"/>
<path d="M217.92 69.9257H238.549" stroke="#FFA200" stroke-width="0.7146" stroke-miterlimit="10"/>
<path d="M217.92 75.4092H238.549" stroke="#FFA200" stroke-width="0.7146" stroke-miterlimit="10"/>
<path d="M210.387 123.391C214.148 119.839 252.254 121.914 254.897 124.139C257.538 126.364 255.752 141.643 255.827 147.354C255.87 150.697 258.972 157.371 262.913 157.788C258.372 160.151 251.142 158.483 247.527 156.398C243.911 154.312 242.751 154.743 235.892 154.743C229.033 154.743 218.111 154.743 213.6 154.743C209.089 154.743 207.76 150.28 207.76 143.467C207.761 136.653 207.885 125.755 210.387 123.391Z" fill="#4A60DB"/>
<path d="M235.056 129.889C235.882 130.038 236.607 130.275 237.231 130.598C237.855 130.922 238.377 131.291 238.798 131.706C239.219 132.121 239.54 132.557 239.759 133.013C239.978 133.469 240.105 133.897 240.138 134.295C240.155 134.494 240.092 134.656 239.948 134.78C239.805 134.905 239.64 134.967 239.455 134.967H237.685C237.399 134.967 237.184 134.914 237.041 134.805C236.898 134.698 236.767 134.552 236.649 134.37C236.396 133.955 236.012 133.594 235.498 133.287C234.983 132.98 234.222 132.827 233.209 132.827C232.771 132.827 232.354 132.873 231.958 132.964C231.562 133.055 231.217 133.188 230.921 133.362C230.626 133.536 230.394 133.747 230.226 133.997C230.057 134.245 229.974 134.528 229.974 134.843C229.974 135.225 230.066 135.536 230.252 135.777C230.437 136.017 230.736 136.224 231.15 136.399C231.563 136.573 232.093 136.735 232.742 136.884C233.391 137.033 234.179 137.207 235.107 137.406C236.117 137.622 236.974 137.876 237.672 138.166C238.372 138.457 238.945 138.805 239.391 139.212C239.838 139.618 240.158 140.087 240.353 140.618C240.546 141.15 240.643 141.755 240.643 142.436C240.643 143.083 240.516 143.689 240.264 144.253C240.011 144.818 239.645 145.324 239.164 145.771C238.683 146.22 238.097 146.594 237.406 146.892C236.715 147.191 235.931 147.397 235.054 147.514V149.207C235.054 149.39 234.987 149.547 234.852 149.68C234.717 149.813 234.557 149.879 234.372 149.879H232.324C232.139 149.879 231.978 149.813 231.844 149.68C231.708 149.548 231.641 149.39 231.641 149.207V147.514C230.883 147.398 230.171 147.203 229.504 146.93C228.839 146.656 228.257 146.319 227.761 145.921C227.263 145.524 226.863 145.062 226.559 144.539C226.255 144.017 226.088 143.44 226.054 142.81C226.036 142.61 226.1 142.449 226.243 142.324C226.387 142.2 226.551 142.137 226.737 142.137H228.506C228.793 142.137 229.012 142.187 229.164 142.287C229.316 142.386 229.442 142.535 229.543 142.735C229.66 142.95 229.804 143.167 229.973 143.382C230.141 143.598 230.369 143.789 230.655 143.955C230.942 144.121 231.3 144.258 231.73 144.365C232.159 144.473 232.694 144.528 233.335 144.528C233.842 144.528 234.329 144.491 234.802 144.415C235.273 144.341 235.687 144.216 236.041 144.041C236.395 143.867 236.682 143.652 236.901 143.394C237.12 143.137 237.23 142.818 237.23 142.436C237.23 142.071 237.112 141.772 236.876 141.539C236.639 141.307 236.281 141.108 235.802 140.942C235.321 140.776 234.727 140.618 234.019 140.468C233.311 140.319 232.494 140.129 231.567 139.896C230.723 139.697 229.987 139.46 229.355 139.186C228.723 138.912 228.2 138.576 227.787 138.178C227.374 137.779 227.067 137.31 226.865 136.771C226.663 136.232 226.561 135.589 226.561 134.841C226.561 134.194 226.688 133.596 226.94 133.049C227.193 132.501 227.543 132.007 227.99 131.567C228.436 131.127 228.971 130.763 229.595 130.472C230.219 130.182 230.902 129.97 231.643 129.836V128.143C231.643 127.961 231.71 127.804 231.846 127.67C231.98 127.537 232.14 127.47 232.326 127.47H234.374C234.559 127.47 234.719 127.537 234.854 127.67C234.989 127.803 235.056 127.96 235.056 128.143V129.889Z" fill="#FFD817"/>
<path d="M127.513 253.621L129.65 290.064H70.8638C70.8638 290.064 72.3875 281.936 72.3875 275.372C72.3875 262.253 80.2132 253.621 80.2132 253.621H127.513Z" fill="white"/>
<path d="M109.92 290.064H129.651L127.513 253.621H119.991L109.92 290.064Z" fill="#D1D1D1"/>
<path d="M145.657 144.368C145.657 144.368 145.043 152.654 146.118 154.112C147.192 155.569 146.787 156.49 145.8 156.95C144.813 157.41 144.813 165.082 142.512 165.62C140.21 166.157 138.216 164.415 137.371 166.859C136.527 169.303 135.454 175.211 135.454 175.211L120.953 174.214L125.02 163.472C125.02 163.472 122.258 155.493 124.099 148.588C125.94 141.683 145.197 137.463 145.657 144.368Z" fill="#F59462"/>
<path d="M117.5 170.991L141.772 174.412C142.33 174.491 142.696 175.037 142.556 175.583L141.131 181.119C141.131 181.119 142.359 189.711 141.898 196.156C141.438 202.601 136.22 225.003 134.839 231.908C133.458 238.813 132.384 255.846 128.855 255.999C125.326 256.153 84.3564 255.999 77.2976 255.999C70.2389 255.999 80.8265 248.788 84.3564 242.496C87.8853 236.205 92.1821 215.03 97.8598 202.907C103.538 190.785 116.119 177.205 116.427 174.558C116.734 171.911 116.146 170.801 117.5 170.991Z" fill="#6470B5"/>
<path d="M115.419 195.627C112.855 192.399 111.416 193.202 112.789 198.611C114.163 204.02 115.889 208.854 120.953 212.076C125.524 214.985 126.627 232.238 134.079 236.669C134.334 234.846 134.581 233.201 134.839 231.909C135.968 226.264 139.661 210.262 141.222 201.089C141.217 201.089 117.576 198.344 115.419 195.627Z" fill="#495285"/>
<path d="M146.271 202.524C146.271 202.524 155.017 214.365 157.856 215.196C160.694 216.028 189.082 218.329 191.537 218.329C193.992 218.329 199.593 221.782 201.818 222.856C204.043 223.931 209.874 228.841 206.882 230.606C203.889 232.37 198.672 232.217 195.68 230.606C192.688 228.994 190.232 226.846 187.547 226.846C184.863 226.846 158.541 227.514 152.792 225.772C144.814 223.355 132.43 209.89 130.413 208.126L146.271 202.524Z" fill="#F59462"/>
<path d="M189.024 228.878C189.254 227.132 188.909 225.368 191.441 226.289C193.973 227.209 196.563 229.339 198.576 229.914C200.59 230.49 198.518 232.849 196.907 232.849C195.296 232.849 188.792 230.64 189.024 228.878Z" fill="#F9B989"/>
<path d="M188.737 219.73C188.737 219.73 199.152 217.829 201.8 218.261C204.447 218.693 202.73 219.782 199.728 220.707C192.822 222.837 185.937 221.129 188.737 219.73Z" fill="#F9B989"/>
<path d="M130.696 153.038C130.696 153.038 127.934 150.276 127.167 153.038C126.4 155.8 129.469 158.102 128.932 159.637C128.395 161.171 126.094 167.156 124.405 166.848C122.718 166.542 124.866 163.166 122.87 160.097C120.875 157.028 118.267 153.346 119.955 146.441C121.642 139.536 127.013 141.377 128.855 138.769C130.696 136.16 132.231 133.551 139.443 134.319C146.654 135.086 149.876 130.824 152.946 134.183C156.015 137.541 155.554 143.68 147.882 145.367C140.21 147.055 138.676 144.753 137.064 146.594C135.453 148.435 132.691 152.884 130.696 153.038Z" fill="#995417"/>
<path d="M113.74 193.701L128.778 210.964L148.035 203.522C148.035 203.522 138.982 189.866 135.913 186.183C132.844 182.501 127.473 178.741 122.87 179.508C118.267 180.274 109.981 188.714 113.74 193.701Z" fill="#6470B5"/>
<path d="M132.83 183.149C132.83 183.149 136.992 186.133 141.976 194.559" stroke="#495285" stroke-miterlimit="10"/>
<path d="M39.877 294.495H148.976" stroke="#292E4A" stroke-width="1.0223" stroke-miterlimit="10"/>
<path d="M167.166 294.495H394.622" stroke="#292E4A" stroke-width="1.0223" stroke-miterlimit="10"/>
</svg>
