<svg width="548" height="367" viewBox="0 0 548 367" fill="none" xmlns="http://www.w3.org/2000/svg">
<path d="M443.779 306.728C443.779 306.728 484.117 232.225 465.537 149.694C465.537 149.694 413.841 193.423 426.005 306.728H443.779Z" fill="url(#paint0_linear_449_803)"/>
<path d="M465.537 306.728C465.537 306.728 455.852 263.38 486.368 215.835C486.368 215.835 504.811 255.732 481.29 306.728H465.537Z" fill="url(#paint1_linear_449_803)"/>
<path d="M88.9622 306.728C88.9622 306.728 18.2452 215.683 43.2113 182.704C68.1774 149.725 96.2452 306.728 96.2452 306.728H88.9622Z" fill="url(#paint2_linear_449_803)"/>
<path d="M114.445 306.728C114.445 306.728 136.842 242.291 118.596 232.408C100.35 222.525 104.547 306.728 104.547 306.728H114.445Z" fill="url(#paint3_linear_449_803)"/>
<path d="M132.524 306.728C132.524 306.728 158.584 248.221 146.603 190.382C146.603 190.382 107.162 224.076 114.445 306.728H132.524Z" fill="url(#paint4_linear_449_803)"/>
<path d="M293.45 309.415C293.45 309.415 311.787 229.336 265.991 158.255C265.991 158.255 231.02 207.164 281.286 309.415H293.45Z" fill="url(#paint5_linear_449_803)"/>
<path d="M473.838 306.728C473.838 306.728 473.474 225.353 447.291 231.602C421.109 237.851 459.455 306.728 459.455 306.728H473.838Z" fill="url(#paint6_linear_449_803)"/>
<path d="M296.491 313.217C296.491 313.217 337.361 247.871 311.437 240.588C285.513 233.305 285.513 312.141 285.513 312.141L296.491 313.217Z" fill="url(#paint7_linear_449_803)"/>
<path opacity="0.34" d="M25.6956 306.728H534.429C534.429 306.728 539.249 201.922 470.843 183.023C402.437 164.124 369.169 161.463 313.9 90.2743C253.644 12.5024 141.601 41.0872 113.913 120.076C94.9681 174.098 114.552 219.028 71.6289 215.865C-6.34071 210.148 3.52713 296.131 25.6956 306.728Z" fill="url(#paint8_linear_449_803)"/>
<path opacity="0.34" d="M409.432 99.9293C409.527 101.11 409.7 102.283 409.949 103.442C411.104 109.477 413.871 115.087 417.956 119.678C422.04 124.269 427.291 127.669 433.151 129.518C455.624 136.831 461.523 113.978 480.134 117.354C498.744 120.729 492.009 84.0556 457.327 74.7808C426.568 66.5094 407.182 78.9317 409.432 99.9293Z" fill="url(#paint9_linear_449_803)"/>
<path opacity="0.34" d="M410.526 69.4135C410.526 70.934 408.838 72.196 406.755 72.196C404.672 72.196 402.969 70.9492 402.969 69.4135C402.969 67.8778 404.672 66.631 406.755 66.631C408.838 66.631 410.526 67.8778 410.526 69.4135Z" fill="#DADDFC"/>
<path d="M197.661 26.9164C197.661 28.6497 195.654 30.0637 193.175 30.0637C190.697 30.0637 188.614 28.6497 188.614 26.9164C188.614 25.183 190.636 23.7538 193.175 23.7538C195.714 23.7538 197.661 25.1678 197.661 26.9164Z" fill="#F4EFF9"/>
<path opacity="0.34" d="M179.644 23.7538C179.644 36.8603 172.163 50.1036 154.404 50.1036C141.252 50.1036 127.294 46.4848 121.531 36.5714C107.148 11.8486 130.654 -1.15144 152.427 0.0801387C170.566 1.00762 179.644 10.6018 179.644 23.7538Z" fill="url(#paint10_linear_449_803)"/>
<path d="M132.844 18.8123C133.862 17.976 152.199 15.7713 164.257 17.2918" stroke="#F8FAFB" stroke-width="0.25" stroke-miterlimit="10"/>
<path d="M132.889 25.8065C132.889 25.8065 155.696 25.8065 164.302 25.8065" stroke="#F8FAFB" stroke-width="0.25" stroke-miterlimit="10"/>
<path d="M132.844 33.4088C132.844 33.4088 147.653 34.3515 156.441 33.9866" stroke="#F8FAFB" stroke-width="0.25" stroke-miterlimit="10"/>
<path opacity="0.34" d="M111.45 80.4977C121.35 80.4977 129.376 73.8605 129.376 65.6731C129.376 57.4858 121.35 50.8486 111.45 50.8486C101.549 50.8486 93.5234 57.4858 93.5234 65.6731C93.5234 73.8605 101.549 80.4977 111.45 80.4977Z" fill="url(#paint11_linear_449_803)"/>
<path d="M543.324 314.011H3.9076C2.8777 314.007 1.89065 313.599 1.15956 312.873C0.42846 312.148 0.0119682 311.164 1.10831e-10 310.134C-7.79516e-06 309.096 0.411199 308.101 1.14358 307.366C1.87597 306.63 2.86985 306.215 3.9076 306.211H543.324C544.362 306.215 545.356 306.63 546.088 307.366C546.821 308.101 547.232 309.096 547.232 310.134C547.22 311.164 546.803 312.148 546.072 312.873C545.341 313.599 544.354 314.007 543.324 314.011Z" fill="#394599"/>
<path d="M234.684 58.3749C235.095 52.8708 237.603 47.4883 237.147 44.5082C236.204 38.1983 234.273 38.7 234.273 38.7C234.273 38.7 235.368 31.8579 223.22 35.6591C211.071 39.4603 207.878 45.7094 209.961 56.2919C212.044 66.8743 233.848 69.7328 234.684 58.3749Z" fill="#2C000D"/>
<path d="M227.523 71.9984L234.153 78.5516L233.681 146.988L232.374 148.676L189.223 135.964L198.558 86.7621L227.523 71.9984Z" fill="#FF5E5E"/>
<path d="M207.331 301.087L220.711 204.948L225.105 135.964L191.518 130.582L192.491 208.612L194.62 301.087H207.331Z" fill="#342D6E"/>
<path d="M241.526 301.255L240.295 215.774L233.681 146.988L205.598 136.968L214.477 205.009L228.815 301.255H241.526Z" fill="#342D6E"/>
<path d="M233.817 41.0872C234.205 45.3125 235.199 49.4601 236.767 53.403C239.047 58.9375 236.037 66.0381 232.722 66.8439C228.161 67.9538 220.939 66.1901 218.278 60.5035C218.278 60.5035 215.556 60.7468 214.598 56.6872C213.99 54.1024 216.195 52.6579 218.247 54.4521C218.247 54.4521 217.959 46.7737 221.775 46.6217C231.111 46.2263 232.996 42.1667 233.817 41.0872Z" fill="#F19B7D"/>
<path d="M218.279 60.5036L217.579 73.8381L228.025 72.2568L227.341 63.6054L218.279 60.5036Z" fill="#F19B7D"/>
<path d="M227.933 54.8627C228.04 55.3644 227.827 55.8358 227.477 55.9118C227.128 55.9878 226.747 55.6229 226.641 55.1211C226.57 54.9192 226.58 54.6978 226.668 54.5027C226.755 54.3075 226.914 54.1534 227.112 54.072C227.462 53.996 227.842 54.3457 227.933 54.8627Z" fill="#2C000D"/>
<path d="M234.684 52.3842C234.836 52.8708 234.684 53.3573 234.335 53.4638C233.985 53.5702 233.59 53.2661 233.422 52.7796C233.255 52.293 233.422 51.7913 233.772 51.6848C234.122 51.5784 234.532 51.8825 234.684 52.3842Z" fill="#2C000D"/>
<path d="M218.248 54.4521C218.248 54.4521 218.248 50.2709 221.806 49.1457C225.364 48.0206 232.997 45.3902 233.818 41.0872C234.639 36.7843 221.532 39.0346 217.731 44.5539C216.645 46.0035 216.103 47.788 216.197 49.5966C216.292 51.4053 217.017 53.1235 218.248 54.4521Z" fill="#2C000D"/>
<path d="M222.064 63.058C222.68 64.0247 223.483 64.8588 224.425 65.5115C225.368 66.1642 226.431 66.6223 227.553 66.8592" stroke="#2C000D" stroke-width="0.25" stroke-miterlimit="10" stroke-linecap="round"/>
<path d="M228.237 61.9176C228.237 61.9176 228.769 63.5901 231.278 62.9059" stroke="#2C000D" stroke-width="0.25" stroke-miterlimit="10" stroke-linecap="round"/>
<path d="M217.944 58.1013C217.944 58.1013 217.062 57.3258 217.944 56.6872C217.944 56.6872 216.697 54.4826 215.846 55.5317" stroke="#2C000D" stroke-width="0.25" stroke-miterlimit="10" stroke-linecap="round"/>
<path d="M217.244 71.9679C217.244 71.9679 221.806 81.3948 225.531 78.5211C226.914 77.4568 227.842 72.2112 227.842 72.2112L217.244 71.9679Z" fill="#F19B7D"/>
<path d="M194.62 113.127L187.671 142.548C187.592 143.104 187.634 143.671 187.795 144.21C187.956 144.748 188.232 145.246 188.603 145.667C188.974 146.089 189.432 146.426 189.946 146.654C190.46 146.882 191.017 146.996 191.579 146.988H233.726L237.451 103.898L202.48 108.353C200.823 108.657 194.62 113.127 194.62 113.127Z" fill="#FF5E5E"/>
<path d="M296.355 125.443L266.615 113.614L243.276 82.8392C239.667 78.1028 234.55 74.7397 228.77 73.3059C207.012 81.7597 220.864 95.748 220.864 95.748L245.693 125.853C248.3 129.006 251.588 131.528 255.308 133.229C259.029 134.93 263.087 135.767 267.177 135.676L300.795 134.931L296.355 125.443Z" fill="#FF5E5E"/>
<path d="M223.995 73.7164L227.964 69.3526L230.503 74.9327C230.503 74.9327 227.021 81.3643 227.295 81.0146C227.568 80.6649 224.512 75.9819 224.512 75.9819L219.707 81.7596L214.477 71.9678L217.929 67.1783L223.995 73.7164Z" fill="#E0E9FF"/>
<path d="M214.477 71.9679L209.642 73.4884C202.192 75.8769 195.957 81.0596 192.248 87.948L175.69 118.738C173.758 123.125 173.084 127.963 173.744 132.711L179.248 172.562L193.616 171.741L195.137 133.304L219.708 81.7597L214.477 71.9679Z" fill="#FF5E5E"/>
<path d="M212.227 184.072H163.025C161.857 184.072 160.911 185.018 160.911 186.185V217.766C160.911 218.933 161.857 219.879 163.025 219.879H212.227C213.394 219.879 214.34 218.933 214.34 217.766V186.185C214.34 185.018 213.394 184.072 212.227 184.072Z" fill="#2C000D"/>
<path d="M228.952 301.087L228.77 303.231C228.734 303.677 228.791 304.124 228.937 304.547C229.082 304.969 229.314 305.356 229.617 305.685C229.919 306.013 230.287 306.275 230.696 306.455C231.105 306.635 231.546 306.728 231.993 306.728H249.661C249.902 306.73 250.139 306.67 250.35 306.553C250.561 306.437 250.739 306.269 250.867 306.065C250.995 305.861 251.069 305.628 251.081 305.387C251.093 305.147 251.044 304.907 250.938 304.691C250.749 304.285 250.472 303.926 250.127 303.639C249.783 303.353 249.38 303.146 248.946 303.034L241.648 301.103L228.952 301.087Z" fill="#2C000D"/>
<path d="M194.62 301.087L194.453 303.231C194.415 303.676 194.469 304.123 194.613 304.545C194.757 304.968 194.987 305.355 195.289 305.684C195.591 306.013 195.957 306.275 196.365 306.455C196.774 306.635 197.215 306.728 197.661 306.728H215.344C215.583 306.726 215.818 306.663 216.027 306.546C216.235 306.429 216.412 306.261 216.539 306.058C216.666 305.856 216.74 305.624 216.754 305.385C216.769 305.146 216.723 304.907 216.621 304.691C216.432 304.285 216.155 303.926 215.81 303.639C215.466 303.353 215.063 303.146 214.629 303.034L207.331 301.103L194.62 301.087Z" fill="#2C000D"/>
<path d="M176.009 187.691C176.297 185.281 176.77 182.897 177.423 180.56C177.659 179.586 178.217 178.72 179.006 178.102C179.795 177.484 180.77 177.15 181.772 177.154H192.309C193.314 177.154 194.291 177.493 195.08 178.117C195.869 178.74 196.425 179.612 196.657 180.59L198.451 188.193" stroke="#2C000D" stroke-width="2" stroke-miterlimit="10"/>
<path d="M179.248 172.562C179.248 172.562 180.297 178.644 181.225 179.009C184.856 179.192 188.495 179.192 192.126 179.009L193.647 171.741L179.248 172.562Z" fill="#F19B7D"/>
<path d="M191.518 202.819H184.052V207.761H191.518V202.819Z" fill="#B8BFD1"/>
<path d="M219.707 173.581L218.582 218.556C218.613 219.435 218.567 220.316 218.445 221.187L207.331 301.087" stroke="#2C000D" stroke-width="0.25" stroke-miterlimit="10" stroke-linecap="round"/>
<path d="M193.616 171.741L195.152 125.99L212.516 99.2451" fill="#FF5E5E"/>
<path d="M193.616 171.741L195.152 125.99L212.516 99.2451" stroke="#2C000D" stroke-width="0.25" stroke-miterlimit="10" stroke-linecap="round"/>
<path d="M350.483 61.0814C350.072 55.5773 352.657 50.955 353.098 47.9901C354.056 41.6802 352.612 44.9492 352.612 44.9492C352.612 44.9492 354.573 38.8673 366.615 43.0638C375.327 46.1047 378.779 50.1492 373.275 59.4392C367.771 68.7293 351.319 72.4241 350.483 61.0814Z" fill="#2C000D"/>
<path d="M407.957 301.255L361.857 211.304L360.062 138.671L393.65 133.288L392.677 211.304L419.847 296.1L407.957 301.255Z" fill="#2C000D"/>
<path d="M333.119 301.087L341.907 203.443L348.719 138.671L379.569 139.659L370.675 214.451L345.83 301.087H333.119Z" fill="#2C000D"/>
<path d="M351.35 43.7936C350.961 48.019 349.968 52.1666 348.4 56.1094C346.119 61.6439 349.13 68.7293 352.444 69.5504C357.006 70.6603 364.228 68.8966 366.889 63.21C366.889 63.21 369.61 63.4533 370.568 59.3936C371.177 56.8089 368.972 55.3492 366.919 57.1586C366.919 57.1586 367.208 49.5562 363.392 49.3129C354.071 48.9328 352.171 44.8732 351.35 43.7936Z" fill="#F19B7D"/>
<path d="M366.889 63.21L367.589 76.5445L357.143 74.9632L357.827 66.3117L366.889 63.21Z" fill="#F19B7D"/>
<path d="M357.31 57.5539C357.203 58.0708 357.416 58.5422 357.766 58.603C358.116 58.6638 358.496 58.3293 358.602 57.8276C358.709 57.3258 358.496 56.8392 358.131 56.7784C357.766 56.7176 357.31 57.0521 357.31 57.5539Z" fill="#2C000D"/>
<path d="M350.483 55.0754C350.331 55.5772 350.483 56.0637 350.832 56.1702C351.182 56.2766 351.577 55.9725 351.745 55.486C351.912 54.9994 351.745 54.4976 351.395 54.3912C351.045 54.2848 350.635 54.5889 350.483 55.0754Z" fill="#2C000D"/>
<path d="M366.92 57.1585C366.92 57.1585 366.919 52.9773 363.362 51.8521C359.804 50.727 352.171 48.0813 351.35 43.7936C350.529 39.5059 363.635 41.741 367.436 47.2451C368.523 48.6971 369.067 50.4842 368.972 52.2954C368.878 54.1066 368.151 55.8274 366.92 57.1585Z" fill="#2C000D"/>
<path d="M363.104 65.7644C362.49 66.7368 361.689 67.5767 360.746 68.2347C359.804 68.8927 358.739 69.3555 357.615 69.596" stroke="#2C000D" stroke-width="0.25" stroke-miterlimit="10" stroke-linecap="round"/>
<path d="M356.93 64.624C356.93 64.624 356.398 66.2965 353.889 65.5971" stroke="#2C000D" stroke-width="0.25" stroke-miterlimit="10" stroke-linecap="round"/>
<path d="M367.224 60.7772C367.224 60.7772 368.106 60.0018 367.224 59.3632C367.224 59.3632 368.47 57.1585 369.322 58.2076" stroke="#2C000D" stroke-width="0.25" stroke-miterlimit="10" stroke-linecap="round"/>
<path d="M367.953 74.6744C367.953 74.6744 363.391 84.1013 359.666 81.2276C358.282 80.1633 357.355 74.9177 357.355 74.9177L367.953 74.6744Z" fill="#F19B7D"/>
<path d="M390.563 115.833L397.496 145.239C397.575 145.793 397.533 146.356 397.375 146.892C397.217 147.428 396.946 147.924 396.58 148.346C396.214 148.769 395.761 149.107 395.253 149.34C394.745 149.572 394.193 149.693 393.634 149.694H347.23C346.064 149.694 344.947 149.231 344.122 148.407C343.298 147.583 342.835 146.466 342.835 145.3L347.762 106.604L382.733 111.059C384.344 111.348 390.563 115.833 390.563 115.833Z" fill="#342D6E"/>
<path d="M407.957 301.255L364.654 216.747C362.831 213.178 361.877 209.229 361.872 205.222L361.735 167.757" stroke="#2C000D" stroke-width="0.25" stroke-miterlimit="10" stroke-linecap="round"/>
<path d="M360.64 53.7223C360.64 53.7223 345.557 50.3924 346.408 38.8977C346.408 38.8977 348.689 40.9807 355.82 39.6579C362.951 38.3351 376.742 40.9199 373.99 47.9445C371.238 54.9691 360.64 53.7223 360.64 53.7223Z" fill="#2C000D"/>
<path d="M294.256 124.607L301.493 121.976L307.104 125.61L302.74 135.691L295.883 135.037L294.256 124.607Z" fill="#F19B7D"/>
<path d="M345.83 301.087L345.998 303.231C346.036 303.676 345.981 304.123 345.837 304.545C345.693 304.968 345.463 305.355 345.161 305.684C344.86 306.013 344.493 306.275 344.085 306.455C343.677 306.635 343.236 306.728 342.79 306.728H325.106C324.867 306.726 324.632 306.663 324.424 306.546C324.215 306.429 324.039 306.261 323.912 306.058C323.784 305.856 323.71 305.624 323.696 305.385C323.682 305.146 323.727 304.907 323.829 304.691C324.017 304.287 324.292 303.929 324.633 303.642C324.975 303.356 325.375 303.148 325.806 303.034L333.104 301.103L345.83 301.087Z" fill="#2C000D"/>
<path d="M357.645 74.6895L356.307 76.0275C352.874 79.4048 350.678 83.8395 350.073 88.617L343.626 138.671L353.813 146.897L395.93 138.671L386.594 89.4685L357.645 74.6895Z" fill="#342D6E"/>
<path d="M359.393 75.389L357.203 72.0439L354.664 77.6393C355.26 79.268 355.768 80.9277 356.185 82.6112C355.896 82.3223 359.727 78.5363 359.727 78.5363L364.775 83.8124L370.751 74.6896L367.238 69.9001L359.393 75.389Z" fill="#E0E9FF"/>
<path d="M356.353 80.2241L357.873 84.451L350.423 112.762L362.374 100.507L360.367 84.3141L363.104 79.6919L360.063 76.8486L356.353 80.2241Z" fill="#A6ABFD"/>
<path d="M295.883 135.037L307.104 136.101L308.458 125.686L299.624 125.23L295.883 135.037Z" fill="#F19B7D"/>
<path d="M308.458 125.686L343.626 116.031L370.675 74.6744L374.75 76.1948C379.109 77.8267 382.721 80.9955 384.907 85.1048C388.495 91.9621 386.853 97.0101 386.853 97.0101L366.205 124.211C362.942 128.504 358.69 131.945 353.811 134.241C348.932 136.536 343.57 137.618 338.183 137.394L307.135 136.101L308.458 125.686Z" fill="#342D6E"/>
<path d="M307.135 136.101L333.652 137.394C341.572 137.776 349.439 135.915 356.349 132.026C363.258 128.137 368.93 122.377 372.713 115.408L377.487 106.604" stroke="#2C000D" stroke-width="0.25" stroke-miterlimit="10" stroke-linecap="round"/>
<path d="M400.583 306.728H409.188L420.273 301.711C420.645 301.541 420.939 301.236 421.097 300.859C421.255 300.481 421.264 300.058 421.124 299.673L419.847 296.1L407.957 301.255L403.395 302.866C402.592 303.154 401.894 303.676 401.39 304.364C400.886 305.052 400.599 305.876 400.567 306.728H400.583Z" fill="#2C000D"/>
<defs>
<linearGradient id="paint0_linear_449_803" x1="423.8" y1="289.714" x2="507.365" y2="97.3141" gradientUnits="userSpaceOnUse">
<stop stop-color="#919DFF"/>
<stop offset="1" stop-color="#FFE5F5"/>
</linearGradient>
<linearGradient id="paint1_linear_449_803" x1="466.83" y1="298.062" x2="514.77" y2="187.706" gradientUnits="userSpaceOnUse">
<stop stop-color="#919DFF"/>
<stop offset="1" stop-color="#FFE5F5"/>
</linearGradient>
<linearGradient id="paint2_linear_449_803" x1="53.6113" y1="281.002" x2="107.527" y2="156.871" gradientUnits="userSpaceOnUse">
<stop stop-color="#919DFF"/>
<stop offset="1" stop-color="#FFE5F5"/>
</linearGradient>
<linearGradient id="paint3_linear_449_803" x1="100.913" y1="297.712" x2="139.503" y2="208.871" gradientUnits="userSpaceOnUse">
<stop stop-color="#919DFF"/>
<stop offset="1" stop-color="#FFE5F5"/>
</linearGradient>
<linearGradient id="paint4_linear_449_803" x1="115.722" y1="295.264" x2="178.229" y2="151.367" gradientUnits="userSpaceOnUse">
<stop stop-color="#919DFF"/>
<stop offset="1" stop-color="#FFE5F5"/>
</linearGradient>
<linearGradient id="paint5_linear_449_803" x1="274.258" y1="323.663" x2="288.273" y2="85.9694" gradientUnits="userSpaceOnUse">
<stop stop-color="#8592FF"/>
<stop offset="1" stop-color="#E5E5FF"/>
</linearGradient>
<linearGradient id="paint6_linear_449_803" x1="447.033" y1="294.656" x2="481.73" y2="214.77" gradientUnits="userSpaceOnUse">
<stop stop-color="#919DFF"/>
<stop offset="1" stop-color="#FFE5F5"/>
</linearGradient>
<linearGradient id="paint7_linear_449_803" x1="280.517" y1="295.571" x2="349.7" y2="242.617" gradientUnits="userSpaceOnUse">
<stop stop-color="#919DFF"/>
<stop offset="1" stop-color="#FFE5F5"/>
</linearGradient>
<linearGradient id="paint8_linear_449_803" x1="235.657" y1="364.871" x2="407.47" y2="-30.7398" gradientUnits="userSpaceOnUse">
<stop stop-color="#919DFF"/>
<stop offset="1" stop-color="#FFE5F5"/>
</linearGradient>
<linearGradient id="paint9_linear_449_803" x1="409.249" y1="101.587" x2="490.26" y2="101.587" gradientUnits="userSpaceOnUse">
<stop stop-color="#919DFF"/>
<stop offset="1" stop-color="#FFE5F5"/>
</linearGradient>
<linearGradient id="paint10_linear_449_803" x1="117.107" y1="25.031" x2="179.644" y2="25.031" gradientUnits="userSpaceOnUse">
<stop stop-color="#919DFF"/>
<stop offset="1" stop-color="#FFE5F5"/>
</linearGradient>
<linearGradient id="paint11_linear_449_803" x1="93.5234" y1="65.6731" x2="129.376" y2="65.6731" gradientUnits="userSpaceOnUse">
<stop stop-color="#919DFF"/>
<stop offset="1" stop-color="#FFE5F5"/>
</linearGradient>
</defs>
</svg>
