<svg width="54" height="54" viewBox="0 0 54 54" fill="none" xmlns="http://www.w3.org/2000/svg">
<rect width="54" height="54" fill="#1E1E1E"/>
<rect width="1280" height="720" transform="translate(-886 -579)" fill="white"/>
<rect x="-886" y="-87" width="1280" height="228" fill="#FF5757"/>
<path d="M26.5919 53.1839C41.2783 53.1839 53.1839 41.2783 53.1839 26.5919C53.1839 11.9056 41.2783 0 26.5919 0C11.9056 0 0 11.9056 0 26.5919C0 41.2783 11.9056 53.1839 26.5919 53.1839Z" fill="white"/>
<path d="M28.659 39.8879V27.7761H32.7413L33.3541 23.0342H28.659V20.0167C28.659 18.6455 29.0381 17.7158 31.0013 17.7158H33.4891V13.4881C33.0581 13.431 31.5727 13.3011 29.8431 13.3011C26.2335 13.3011 23.7613 15.5033 23.7613 19.5492V23.0394H19.6946V27.7813H23.7613V39.8879H28.659Z" fill="black"/>
</svg>
