<svg width="54" height="54" viewBox="0 0 54 54" fill="none" xmlns="http://www.w3.org/2000/svg">
<rect width="54" height="54" fill="#1E1E1E"/>
<rect width="1280" height="720" transform="translate(-962 -579)" fill="white"/>
<rect x="-962" y="-87" width="1280" height="228" fill="#FF5757"/>
<path d="M27.1388 53.1839C41.8251 53.1839 53.7308 41.2783 53.7308 26.5919C53.7308 11.9056 41.8251 0 27.1388 0C12.4525 0 0.546875 11.9056 0.546875 26.5919C0.546875 41.2783 12.4525 53.1839 27.1388 53.1839Z" fill="url(#paint0_linear_0_1)"/>
<path d="M27.1389 13.296C23.5293 13.296 23.0774 13.3116 21.6595 13.3739C20.2416 13.4414 19.2808 13.6648 18.4342 13.992C17.5617 14.3296 16.819 14.7866 16.0763 15.5241C15.3336 16.2616 14.8817 17.0043 14.5441 17.8821C14.2169 18.7287 13.9936 19.6947 13.9261 21.1074C13.8585 22.5253 13.8481 22.9771 13.8481 26.5868C13.8481 30.1964 13.8637 30.6483 13.9261 32.0662C13.9936 33.4789 14.2169 34.4449 14.5441 35.2915C14.8817 36.1641 15.3387 36.9068 16.0763 37.6495C16.8138 38.387 17.5565 38.844 18.4342 39.1816C19.2808 39.5088 20.2468 39.7321 21.6595 39.7997C23.0774 39.8672 23.5293 39.8776 27.1389 39.8776C30.7486 39.8776 31.2004 39.862 32.6183 39.7997C34.031 39.7321 34.997 39.5088 35.8436 39.1816C36.7162 38.844 37.4589 38.387 38.2016 37.6495C38.9391 36.912 39.3961 36.1692 39.7337 35.2915C40.0609 34.4449 40.2843 33.4789 40.3518 32.0662C40.4193 30.6483 40.4297 30.1964 40.4297 26.5868C40.4297 22.9771 40.4141 22.5253 40.3518 21.1074C40.2843 19.6947 40.0609 18.7287 39.7337 17.8821C39.3961 17.0095 38.9391 16.2668 38.2016 15.5241C37.4641 14.7866 36.7214 14.3296 35.8436 13.992C34.997 13.6648 34.031 13.4414 32.6183 13.3739C31.2004 13.3116 30.7486 13.296 27.1389 13.296ZM27.1389 15.6903C30.6862 15.6903 31.1121 15.7059 32.5144 15.7682C33.8129 15.8306 34.514 16.0435 34.9815 16.2305C35.6047 16.4694 36.0462 16.7602 36.5136 17.2225C36.9759 17.6899 37.2667 18.1314 37.5056 18.7546C37.6874 19.2221 37.9055 19.9232 37.9627 21.2217C38.025 22.624 38.0406 23.0447 38.0406 26.5972C38.0406 30.1497 38.025 30.5704 37.9575 31.9727C37.89 33.2711 37.6718 33.9723 37.49 34.4397C37.2407 35.063 36.9603 35.5044 36.4928 35.9719C36.0306 36.4341 35.5788 36.725 34.9659 36.9639C34.4985 37.1457 33.7869 37.3638 32.4885 37.4209C31.0758 37.4833 30.6603 37.4988 27.1026 37.4988C23.5449 37.4988 23.1294 37.4833 21.7167 37.4157C20.4182 37.3482 19.7067 37.1301 19.2392 36.9483C18.6108 36.699 18.1745 36.4185 17.7123 35.9511C17.2448 35.4889 16.9488 35.037 16.7151 34.4241C16.5333 33.9567 16.3152 33.2452 16.2477 31.9467C16.1957 30.5496 16.1801 30.1185 16.1801 26.5816C16.1801 23.0395 16.1957 22.6084 16.2477 21.1957C16.3152 19.8973 16.5281 19.1857 16.7151 18.7183C16.9488 18.0846 17.2448 17.6536 17.7123 17.1861C18.1745 16.7239 18.6108 16.4227 19.2392 16.1889C19.7067 16.0072 20.4026 15.789 21.7011 15.7215C23.1138 15.6696 23.5293 15.654 27.087 15.654L27.1389 15.6903ZM27.1389 19.7622C23.3683 19.7622 20.3092 22.8213 20.3092 26.592C20.3092 30.3626 23.3683 33.4218 27.1389 33.4218C30.9096 33.4218 33.9687 30.3626 33.9687 26.592C33.9687 22.8213 30.9096 19.7622 27.1389 19.7622ZM27.1389 31.0222C24.6927 31.0222 22.7087 29.0382 22.7087 26.592C22.7087 24.1457 24.6927 22.1617 27.1389 22.1617C29.5852 22.1617 31.5692 24.1457 31.5692 26.592C31.5692 29.0382 29.5852 31.0222 27.1389 31.0222ZM35.8332 19.4973C35.8332 20.3803 35.1165 21.0918 34.2388 21.0918C33.3558 21.0918 32.6443 20.3751 32.6443 19.4973C32.6443 18.6196 33.361 17.9029 34.2388 17.9029C35.1165 17.8977 35.8332 18.6144 35.8332 19.4973Z" fill="black"/>
<defs>
<linearGradient id="paint0_linear_0_1" x1="27.1388" y1="0" x2="27.1388" y2="53.1839" gradientUnits="userSpaceOnUse">
<stop offset="0.9999" stop-color="white"/>
<stop offset="1" stop-color="#E4405F" stop-opacity="0"/>
</linearGradient>
</defs>
</svg>
