<svg width="178" height="167" viewBox="0 0 178 167" fill="none" xmlns="http://www.w3.org/2000/svg">
<g clip-path="url(#clip0_276_255)">
<path fill-rule="evenodd" clip-rule="evenodd" d="M5.60206 157.674V144.85C5.60206 144.011 5.54095 143.419 5.42406 143.073C5.30098 142.724 5.09456 142.427 4.78857 142.175C4.66207 142.076 4.52082 141.998 4.36996 141.938C4.21504 141.874 4.0223 141.82 3.78254 141.77C3.54258 141.731 3.38766 141.682 3.31244 141.618C3.24171 141.553 3.2041 141.465 3.2041 141.351C3.21265 141.178 3.25068 141.06 3.32163 141.005C3.39236 140.946 3.52869 140.912 3.74002 140.902C3.77763 140.902 3.90477 140.913 4.12593 140.931C5.64458 141.035 7.2485 141.09 8.9366 141.09C10.9869 141.09 13.0276 141.01 15.0683 140.857C15.4443 140.828 15.6704 140.813 15.7454 140.813C15.9762 140.813 16.1215 140.857 16.1924 140.936C16.2628 141.021 16.2961 141.178 16.2961 141.41V141.597C16.2961 141.609 16.2918 141.627 16.2811 141.657C16.2726 141.682 16.2662 141.731 16.2662 141.8L16.0734 144.228C16.0542 144.471 16.0219 144.633 15.9796 144.712C15.9324 144.796 15.8525 144.84 15.7439 144.85C15.6264 144.85 15.5326 144.806 15.4666 144.712C15.4054 144.623 15.3725 144.49 15.3725 144.317C15.3725 144.278 15.3769 144.218 15.3875 144.145C15.3982 144.066 15.4025 144.011 15.4025 143.982C15.4025 143.261 15.1578 142.753 14.664 142.466C14.1746 142.175 13.272 142.032 11.9553 142.032H9.98493C9.05861 142.032 8.46136 142.116 8.2028 142.279C7.93933 142.442 7.80791 142.753 7.80791 143.216V149.317C7.80791 149.85 7.86433 150.171 7.98164 150.28C8.09446 150.393 8.35794 150.448 8.77163 150.448H11.0903C11.9504 150.448 12.581 150.373 12.9759 150.23C13.3707 150.087 13.681 149.841 13.902 149.495C14.0099 149.327 14.1182 149.061 14.2218 148.69C14.3298 148.32 14.4708 148.132 14.6452 148.132C14.7439 148.132 14.824 148.192 14.8845 148.305C14.9462 148.424 14.9742 148.582 14.9742 148.784C14.9742 148.834 14.955 149.155 14.9178 149.757C14.8845 150.359 14.8663 150.946 14.8663 151.513C14.8663 152.057 14.9039 152.629 14.9742 153.236C14.9935 153.399 15.0026 153.502 15.0026 153.552C15.0026 153.725 14.965 153.873 14.8845 153.991C14.8099 154.115 14.7154 154.174 14.6167 154.174C14.3866 154.174 14.2406 153.937 14.1746 153.468C14.128 153.137 14.0808 152.891 14.0244 152.728C13.8693 152.313 13.5919 152.022 13.1964 151.854C12.8015 151.686 12.1715 151.603 11.3108 151.603H8.64918C8.30151 151.603 8.07073 151.661 7.96774 151.775C7.8594 151.894 7.8079 152.155 7.8079 152.57V158.611C7.8079 159.351 7.96304 159.85 8.26882 160.101C8.57887 160.353 9.19492 160.477 10.121 160.477C11.2593 160.477 12.3502 160.349 13.3938 160.092C14.4381 159.84 15.2843 159.495 15.9379 159.06C16.3048 158.808 16.6484 158.468 16.9634 158.038C17.2784 157.609 17.4946 157.397 17.603 157.397C17.678 157.397 17.7393 157.441 17.7816 157.535C17.8288 157.624 17.8519 157.747 17.8519 157.905C17.8519 158.182 17.7628 158.547 17.5891 159.001C17.4145 159.455 17.2032 159.85 16.9585 160.191C16.526 160.748 16.079 161.143 15.6277 161.375C15.1717 161.607 14.5932 161.72 13.8973 161.72C13.7137 161.72 13.0697 161.691 11.96 161.637C10.8546 161.577 9.84859 161.548 8.93637 161.548C7.30874 161.548 5.7715 161.607 4.32315 161.72C4.11118 161.74 3.97976 161.75 3.93318 161.75C3.87142 161.75 3.80582 161.716 3.73509 161.642C3.66479 161.567 3.6321 161.488 3.6321 161.404C3.6321 161.281 3.66479 161.178 3.73018 161.094C3.79193 161.01 3.93318 160.916 4.15348 160.812C4.17272 160.801 4.19109 160.792 4.2099 160.783C4.54923 160.63 4.79817 160.462 4.95309 160.274C5.19306 160.018 5.36208 159.716 5.45653 159.371C5.55525 159.03 5.60206 158.463 5.60206 157.674ZM20.8668 158.354V152.111C20.8668 151.578 20.7681 151.198 20.5657 150.966C20.3633 150.734 20.0298 150.62 19.5686 150.62C19.2962 150.62 19.1035 150.59 19 150.531C18.8915 150.477 18.84 150.388 18.84 150.275C18.84 150.141 18.8776 150.042 18.9575 149.979C19.0374 149.914 19.1975 149.875 19.4471 149.855C19.4748 149.855 19.5033 149.851 19.5313 149.84C19.7148 149.8 19.8462 149.765 19.9311 149.74C20.4907 149.533 21.0454 149.291 21.6051 149.005C22.16 148.724 22.47 148.581 22.5361 148.581C22.6536 148.581 22.7384 148.625 22.7803 148.709C22.8275 148.798 22.851 148.981 22.851 149.257V151.009C23.5942 150.293 24.309 149.765 24.9954 149.42C25.6774 149.069 26.3454 148.897 26.9991 148.897C27.6568 148.897 28.2827 149.05 28.8701 149.36C29.4584 149.666 29.9424 150.096 30.3191 150.649C30.6479 151.117 30.883 151.685 31.0193 152.347C31.1554 153.008 31.2264 154.059 31.2264 155.506V158.383C31.2264 159.192 31.2828 159.74 31.4003 160.017C31.5136 160.298 31.7249 160.535 32.026 160.727C32.1386 160.796 32.261 160.845 32.3972 160.88C32.5384 160.914 32.6933 160.93 32.8679 160.93C33.0884 160.93 33.2433 160.964 33.3282 161.028C33.4179 161.097 33.4602 161.216 33.4602 161.379C33.4602 161.483 33.4226 161.566 33.3427 161.631C33.2671 161.694 33.1641 161.724 33.032 161.724C32.9756 161.724 32.6698 161.7 32.1108 161.65C31.551 161.606 31.0193 161.581 30.5255 161.581C29.8011 161.581 29.1101 161.625 28.4613 161.71C28.3673 161.718 28.3104 161.725 28.2923 161.725C28.2124 161.725 28.1365 161.695 28.076 161.631C28.01 161.567 27.9767 161.494 27.9767 161.409C27.9767 161.251 28.0991 161.089 28.3487 160.906C28.5976 160.728 28.7671 160.58 28.8562 160.452C29.0021 160.259 29.1058 160.022 29.1669 159.736C29.2276 159.455 29.256 158.991 29.256 158.354V155.032C29.256 153.236 29.016 151.982 28.532 151.271C28.0523 150.556 27.2431 150.2 26.1146 150.2C25.0851 150.2 24.2855 150.467 23.7118 150.995C23.1382 151.528 22.851 152.269 22.851 153.221V158.384C22.851 159.178 22.9171 159.722 23.0438 160.018C23.1709 160.319 23.4156 160.566 23.7731 160.758C23.8765 160.817 23.994 160.857 24.1346 160.886C24.2716 160.915 24.4265 160.93 24.6005 160.93C24.8874 160.951 25.071 160.995 25.1552 161.059C25.2353 161.128 25.2776 161.232 25.2776 161.38C25.2776 161.483 25.2353 161.567 25.1552 161.631C25.071 161.695 24.9627 161.725 24.8214 161.725C24.7603 161.725 24.4314 161.7 23.8385 161.651C23.2461 161.607 22.6863 161.582 22.16 161.582C21.4168 161.582 20.6978 161.626 19.9969 161.71C19.8885 161.719 19.8182 161.726 19.7898 161.726C19.7007 161.726 19.6159 161.696 19.5409 161.632C19.4699 161.568 19.4325 161.494 19.4325 161.41C19.4325 161.312 19.4609 161.228 19.5171 161.153C19.5686 161.084 19.6723 161.011 19.8182 160.931C19.8462 160.911 19.8934 160.882 19.9546 160.843C20.1569 160.69 20.3022 160.561 20.3821 160.452C20.5657 160.22 20.6924 159.969 20.7631 159.688C20.8341 159.406 20.8668 158.967 20.8668 158.354ZM36.2157 158.354V152.036C36.2157 151.563 36.1078 151.208 35.8868 150.976C35.6657 150.739 35.3272 150.62 34.8661 150.62C34.5979 150.62 34.4143 150.595 34.3163 150.541C34.2126 150.487 34.1605 150.398 34.1605 150.275C34.1605 150.157 34.2034 150.067 34.278 150.008C34.3586 149.944 34.5464 149.884 34.8376 149.826C34.8941 149.805 34.9648 149.786 35.0588 149.766C35.5009 149.653 35.8584 149.529 36.1315 149.406C36.4082 149.283 36.7475 149.105 37.1514 148.883C37.5561 148.66 37.81 148.552 37.9087 148.552C38.0213 148.552 38.0965 148.591 38.1395 148.676C38.1764 148.755 38.2 148.952 38.2 149.258V151.212C38.9431 150.275 39.512 149.658 39.9026 149.352C40.2928 149.051 40.6738 148.898 41.0499 148.898C41.4823 148.898 41.8918 149.056 42.277 149.377C42.663 149.692 42.8555 150.003 42.8555 150.299C42.8555 150.531 42.738 150.793 42.4982 151.079C42.2582 151.37 42.0561 151.513 41.8918 151.513C41.8072 151.513 41.5764 151.395 41.1911 151.153C40.8052 150.911 40.4242 150.793 40.0577 150.793C39.5731 150.793 39.1359 151.025 38.75 151.494C38.3647 151.963 38.1722 152.481 38.1722 153.049V157.935C38.1722 158.922 38.2425 159.583 38.3792 159.934C38.5156 160.279 38.7737 160.556 39.1504 160.758C39.2581 160.817 39.3806 160.857 39.512 160.887C39.6483 160.916 39.7992 160.931 39.9778 160.931C40.2601 160.951 40.4436 160.995 40.5278 161.059C40.6077 161.128 40.6501 161.232 40.6501 161.38C40.6501 161.473 40.6035 161.558 40.5139 161.627C40.4199 161.691 40.3073 161.725 40.1663 161.725C40.1043 161.725 39.7705 161.701 39.1782 161.651C38.581 161.607 38.0164 161.582 37.495 161.582C36.733 161.582 35.9994 161.627 35.2896 161.711C35.181 161.72 35.1109 161.726 35.0823 161.726C34.9934 161.726 34.9133 161.696 34.8515 161.633C34.7861 161.568 34.7534 161.495 34.7534 161.411C34.7534 161.332 34.7772 161.263 34.8238 161.199C34.8661 161.134 34.9746 161.046 35.1387 160.932C35.3035 160.833 35.4259 160.754 35.5058 160.685C35.5858 160.616 35.6561 160.542 35.7172 160.453C35.8958 160.221 36.0182 159.945 36.0982 159.623C36.1781 159.298 36.2157 158.877 36.2157 158.354ZM45.5832 144.401C45.5832 144.12 45.743 143.784 46.058 143.389C46.3729 142.994 46.6274 142.797 46.82 142.797C46.9986 142.797 47.2428 142.99 47.5584 143.37C47.8734 143.749 48.0333 144.066 48.0333 144.317C48.0333 144.554 47.8824 144.87 47.577 145.26C47.2762 145.65 47.0035 145.847 46.7685 145.847C46.5287 145.847 46.2699 145.68 45.9968 145.349C45.7195 145.018 45.5832 144.702 45.5832 144.401ZM45.7195 158.359V153.019C45.7195 152.017 45.6347 151.37 45.4656 151.084C45.296 150.793 44.9767 150.65 44.5068 150.65C44.2384 150.65 44.041 150.62 43.9136 150.561C43.7865 150.506 43.7211 150.418 43.7211 150.304C43.7211 150.111 43.9466 149.949 44.3976 149.826H44.4214C44.6333 149.786 44.8447 149.732 45.0519 149.667C45.2584 149.598 45.4705 149.51 45.6915 149.406C45.9592 149.292 46.293 149.12 46.6977 148.893C47.1022 148.666 47.37 148.552 47.4971 148.552C47.6146 148.552 47.6995 148.582 47.7461 148.641C47.7933 148.695 47.8121 148.829 47.8121 149.031C47.8121 149.07 47.8078 149.218 47.8014 149.48C47.7548 150.926 47.7311 152.387 47.7311 153.873V158.384C47.7311 159.159 47.7971 159.697 47.9285 159.998C48.0649 160.304 48.3145 160.556 48.6809 160.758C48.7893 160.817 48.9117 160.857 49.048 160.887C49.1794 160.916 49.335 160.931 49.5089 160.931C49.7906 160.951 49.9741 160.995 50.059 161.059C50.1389 161.128 50.1812 161.232 50.1812 161.38C50.1812 161.473 50.134 161.558 50.0449 161.627C49.9504 161.691 49.8378 161.725 49.6968 161.725C49.6354 161.725 49.3017 161.701 48.7093 161.651C48.1121 161.607 47.5475 161.582 47.0262 161.582C46.2642 161.582 45.5306 161.627 44.8201 161.711C44.7122 161.72 44.6419 161.726 44.6134 161.726C44.5239 161.726 44.4438 161.696 44.3827 161.633C44.3173 161.568 44.2839 161.495 44.2839 161.411C44.2839 161.312 44.3124 161.228 44.3688 161.154C44.4203 161.085 44.5239 161.011 44.6699 160.932C44.6976 160.912 44.7455 160.882 44.8062 160.843C45.0083 160.69 45.1592 160.562 45.2483 160.453C45.422 160.221 45.5445 159.969 45.6148 159.688C45.6855 159.407 45.7184 158.968 45.7184 158.36L45.7195 158.359ZM60.763 151.918C60.763 152.111 60.7481 152.244 60.7158 152.318C60.6831 152.392 60.6359 152.427 60.5703 152.427C60.4759 152.427 60.3209 152.264 60.1004 151.943C59.8835 151.617 59.6812 151.365 59.4976 151.183C59.1034 150.788 58.6375 150.477 58.1063 150.25C57.5698 150.023 57.0293 149.91 56.4787 149.91C55.4489 149.91 54.6496 150.324 54.0711 151.159C53.4931 151.992 53.2012 153.147 53.2012 154.623C53.2012 156.38 53.6294 157.787 54.4805 158.853C55.3363 159.919 56.4697 160.452 57.8852 160.452C58.8961 160.452 59.832 160.17 60.7019 159.603C61.5716 159.041 62.0229 158.759 62.061 158.759C62.0939 158.759 62.1223 158.775 62.1411 158.808C62.1603 158.843 62.1689 158.887 62.1689 158.946C62.1689 159.09 62.0702 159.292 61.8684 159.554C61.6654 159.815 61.3887 160.092 61.0404 160.393C60.3868 160.961 59.7145 161.375 59.0234 161.637C58.3268 161.898 57.5557 162.026 56.6999 162.026C55.1013 162.026 53.7796 161.429 52.7403 160.235C51.6967 159.041 51.1744 157.53 51.1744 155.709C51.1744 153.789 51.7717 152.175 52.9662 150.862C54.1606 149.554 55.6278 148.898 57.3727 148.898C57.9416 148.898 58.4777 148.947 58.9803 149.04C59.4795 149.14 59.8835 149.268 60.1985 149.43C60.4197 149.559 60.5703 149.688 60.6455 149.816C60.7254 149.944 60.7631 150.186 60.7631 150.531V150.674L60.763 151.918ZM65.1551 158.354V144.169C65.1551 143.177 65.0709 142.536 64.9012 142.24C64.7316 141.948 64.4215 141.8 63.9702 141.8H63.7493C63.5845 141.8 63.4529 141.766 63.3591 141.696C63.2604 141.632 63.2131 141.544 63.2131 141.44C63.2131 141.321 63.2555 141.232 63.3446 141.163C63.4294 141.094 63.6456 141.03 63.9841 140.961C64.0217 140.95 64.083 140.936 64.163 140.917C64.5773 140.803 64.9062 140.69 65.1551 140.586C65.475 140.448 65.8273 140.26 66.2041 140.019C66.5797 139.777 66.825 139.658 66.9329 139.658C67.0503 139.658 67.149 139.712 67.2242 139.816C67.2952 139.924 67.3325 140.068 67.3325 140.251C67.3325 140.28 67.3218 140.394 67.3041 140.595C67.1964 141.978 67.14 143.443 67.14 144.993V151.01C67.8826 150.294 68.5973 149.766 69.2843 149.421C69.9658 149.07 70.6337 148.898 71.2874 148.898C71.9458 148.898 72.5708 149.051 73.1591 149.361C73.7465 149.667 74.2311 150.097 74.6072 150.65C74.9459 151.129 75.1859 151.711 75.3318 152.397C75.4722 153.083 75.5431 154.12 75.5431 155.507V158.384C75.5431 159.224 75.5995 159.781 75.7079 160.047C75.8205 160.319 76.0228 160.546 76.3143 160.728C76.4269 160.797 76.5491 160.847 76.6812 160.881C76.8126 160.916 76.9727 160.931 77.1562 160.931C77.3864 160.931 77.5462 160.966 77.6402 161.03C77.7298 161.098 77.777 161.217 77.777 161.38C77.777 161.484 77.7394 161.567 77.6594 161.632C77.5795 161.696 77.4802 161.725 77.3488 161.725C77.2923 161.725 76.9866 161.701 76.4269 161.651C75.8677 161.607 75.3361 161.582 74.8422 161.582C74.1185 161.582 73.4225 161.627 72.7593 161.711C72.6793 161.72 72.6278 161.726 72.609 161.726C72.5291 161.726 72.4533 161.696 72.3832 161.633C72.3129 161.568 72.2746 161.495 72.2656 161.411C72.2656 161.263 72.3921 161.099 72.6509 160.916C72.9095 160.734 73.0838 160.581 73.1729 160.453C73.3093 160.261 73.408 160.023 73.4691 159.737C73.5302 159.456 73.5589 158.992 73.5589 158.355V155.033C73.5589 153.247 73.3189 151.998 72.8343 151.278C72.3545 150.562 71.541 150.202 70.403 150.202C69.3781 150.202 68.5738 150.468 68.0001 150.996C67.4266 151.529 67.14 152.27 67.14 153.222V158.385C67.14 159.16 67.2054 159.693 67.3368 159.999C67.4738 160.305 67.7227 160.556 68.0898 160.759C68.1886 160.818 68.3108 160.858 68.4471 160.887C68.5835 160.916 68.7433 160.932 68.9172 160.932C69.1995 160.952 69.3831 160.996 69.4679 161.06C69.5478 161.129 69.5895 161.233 69.5895 161.381C69.5895 161.485 69.5478 161.568 69.4679 161.633C69.3831 161.696 69.2745 161.726 69.1335 161.726C69.0721 161.726 68.7386 161.702 68.1364 161.652C67.5349 161.608 66.9704 161.583 66.4483 161.583C65.7058 161.583 64.9861 161.627 64.2852 161.712C64.1775 161.72 64.1066 161.727 64.0781 161.727C63.989 161.727 63.9091 161.697 63.848 161.633C63.782 161.569 63.7493 161.496 63.7493 161.411C63.7493 161.313 63.7777 161.229 63.8339 161.155C63.8854 161.086 63.989 161.012 64.135 160.933C64.1726 160.903 64.229 160.859 64.2991 160.804C64.4737 160.666 64.6002 160.552 64.6711 160.454C64.8498 160.221 64.9716 159.97 65.0472 159.689C65.1175 159.407 65.1551 158.968 65.1551 158.356L65.1551 158.354ZM80.3399 144.401C80.3399 144.12 80.4997 143.784 80.8147 143.389C81.1297 142.994 81.3835 142.797 81.5767 142.797C81.7553 142.797 81.9994 142.99 82.315 143.37C82.6299 143.749 82.79 144.066 82.79 144.317C82.79 144.554 82.6391 144.87 82.3331 145.26C82.0327 145.65 81.7596 145.847 81.5246 145.847C81.2852 145.847 81.026 145.68 80.7536 145.349C80.476 145.018 80.3399 144.702 80.3399 144.401ZM80.476 158.359V153.019C80.476 152.017 80.3914 151.37 80.2224 151.084C80.0527 150.793 79.7328 150.65 79.2629 150.65C78.9945 150.65 78.7971 150.62 78.6704 150.561C78.5433 150.506 78.4772 150.418 78.4772 150.304C78.4772 150.111 78.7031 149.949 79.1544 149.826H79.1781C79.3894 149.786 79.6014 149.732 79.8087 149.667C80.0151 149.598 80.2271 149.51 80.4476 149.406C80.716 149.292 81.0498 149.12 81.4543 148.893C81.859 148.666 82.1267 148.552 82.2532 148.552C82.3708 148.552 82.4562 148.582 82.5028 148.641C82.55 148.695 82.5688 148.829 82.5688 149.031C82.5688 149.07 82.5645 149.218 82.5581 149.48C82.5113 150.926 82.4878 152.387 82.4878 153.873V158.384C82.4878 159.159 82.5532 159.697 82.6853 159.998C82.8216 160.304 83.0712 160.556 83.4377 160.758C83.546 160.817 83.6684 160.857 83.8046 160.887C83.9362 160.916 84.0911 160.931 84.2657 160.931C84.5473 160.951 84.7309 160.995 84.8155 161.059C84.8956 161.128 84.9373 161.232 84.9373 161.38C84.9373 161.473 84.8907 161.558 84.801 161.627C84.7072 161.691 84.5946 161.725 84.4533 161.725C84.3922 161.725 84.0584 161.701 83.4661 161.651C82.8688 161.607 82.3043 161.582 81.7823 161.582C81.0207 161.582 80.2873 161.627 79.5768 161.711C79.4689 161.72 79.398 161.726 79.3702 161.726C79.2804 161.726 79.2005 161.696 79.1394 161.633C79.0734 161.568 79.0407 161.495 79.0407 161.411C79.0407 161.312 79.0691 161.228 79.1255 161.154C79.177 161.085 79.2804 161.011 79.4266 160.932C79.4544 160.912 79.5016 160.882 79.5627 160.843C79.7651 160.69 79.9153 160.562 80.0044 160.453C80.1788 160.221 80.3012 159.969 80.3715 159.688C80.4416 159.407 80.4749 158.968 80.4749 158.36L80.476 158.359ZM87.5017 158.355V152.111C87.5017 151.578 87.403 151.198 87.2009 150.966C86.9985 150.735 86.6647 150.62 86.2038 150.62C85.9311 150.62 85.7386 150.591 85.635 150.531C85.5266 150.478 85.4752 150.388 85.4752 150.275C85.4752 150.142 85.5125 150.043 85.5927 149.979C85.6726 149.915 85.8324 149.875 86.0814 149.856C86.1098 149.856 86.1378 149.851 86.1662 149.84C86.3498 149.8 86.4812 149.766 86.566 149.741C87.1256 149.534 87.6806 149.292 88.2402 149.006C88.7949 148.724 89.1052 148.581 89.1712 148.581C89.2888 148.581 89.3734 148.626 89.4153 148.71C89.4625 148.798 89.4862 148.981 89.4862 149.257V151.01C90.2294 150.294 90.9442 149.766 91.6303 149.42C92.3124 149.07 92.9806 148.897 93.634 148.897C94.292 148.897 94.9176 149.05 95.5053 149.36C96.0933 149.667 96.5773 150.096 96.9534 150.649C97.2829 151.118 97.5179 151.685 97.6543 152.347C97.7906 153.009 97.8613 154.059 97.8613 155.506V158.383C97.8613 159.193 97.9177 159.741 98.0353 160.017C98.1479 160.298 98.3599 160.535 98.6609 160.728C98.7736 160.797 98.896 160.846 99.0323 160.881C99.1733 160.915 99.3285 160.93 99.5022 160.93C99.724 160.93 99.8785 160.965 99.9633 161.029C100.053 161.098 100.095 161.217 100.095 161.379C100.095 161.483 100.058 161.567 99.9779 161.631C99.902 161.695 99.7986 161.725 99.667 161.725C99.6108 161.725 99.3048 161.7 98.7451 161.651C98.1861 161.606 97.6543 161.582 97.1607 161.582C96.4361 161.582 95.745 161.626 95.0963 161.71C95.0025 161.719 94.9454 161.726 94.9272 161.726C94.8473 161.726 94.7717 161.696 94.7106 161.632C94.645 161.567 94.6116 161.494 94.6116 161.41C94.6116 161.252 94.7341 161.089 94.9837 160.906C95.2326 160.729 95.4023 160.581 95.4912 160.452C95.6367 160.26 95.7407 160.023 95.8021 159.737C95.8625 159.455 95.891 158.991 95.891 158.355V155.033C95.891 153.236 95.6512 151.982 95.1666 151.272C94.6875 150.556 93.8783 150.201 92.7498 150.201C91.7201 150.201 90.9205 150.467 90.3469 150.995C89.7732 151.529 89.4862 152.269 89.4862 153.221V158.384C89.4862 159.179 89.5522 159.722 89.6787 160.018C89.8059 160.319 90.0508 160.566 90.408 160.758C90.5117 160.817 90.6292 160.857 90.7696 160.887C90.9066 160.916 91.0617 160.931 91.2354 160.931C91.5226 160.951 91.7062 160.995 91.7904 161.059C91.8703 161.128 91.9126 161.232 91.9126 161.38C91.9126 161.484 91.8703 161.567 91.7904 161.632C91.7062 161.696 91.5976 161.726 91.4566 161.726C91.3955 161.726 91.0664 161.701 90.4734 161.652C89.8811 161.607 89.3215 161.583 88.7949 161.583C88.0518 161.583 87.3329 161.627 86.632 161.711C86.5235 161.72 86.4534 161.727 86.4248 161.727C86.3359 161.727 86.2504 161.697 86.1758 161.633C86.1051 161.568 86.0675 161.495 86.0675 161.411C86.0675 161.312 86.0959 161.228 86.1523 161.154C86.2038 161.085 86.3072 161.011 86.4534 160.932C86.4812 160.912 86.5284 160.883 86.5895 160.843C86.7919 160.69 86.9374 160.562 87.0173 160.453C87.2009 160.221 87.3274 159.969 87.3983 159.688C87.4686 159.407 87.5017 158.967 87.5017 158.355ZM103.594 162.086C103.152 162.259 102.832 162.525 102.63 162.881C102.427 163.236 102.329 163.71 102.329 164.297C102.329 165.082 102.616 165.665 103.184 166.055C103.754 166.444 104.61 166.642 105.757 166.642C107.21 166.642 108.348 166.39 109.171 165.892C109.998 165.388 110.412 164.702 110.412 163.834C110.412 163.365 110.295 163.024 110.055 162.821C109.815 162.619 109.368 162.501 108.719 162.461C108.414 162.45 107.953 162.437 107.328 162.417C105.662 162.377 104.421 162.269 103.594 162.086ZM103.565 152.763C103.565 154.111 103.805 155.142 104.29 155.857C104.769 156.573 105.465 156.929 106.378 156.929C107.257 156.929 107.93 156.637 108.395 156.06C108.861 155.482 109.091 154.648 109.091 153.558C109.091 152.264 108.837 151.242 108.334 150.483C107.826 149.727 107.149 149.347 106.293 149.347C105.446 149.347 104.784 149.653 104.294 150.261C103.81 150.867 103.565 151.702 103.565 152.763ZM102.949 161.726C102.625 161.563 102.376 161.311 102.197 160.98C102.019 160.65 101.929 160.275 101.929 159.86C101.929 159.406 102.056 158.937 102.315 158.453C102.568 157.965 102.935 157.491 103.415 157.028C102.846 156.632 102.413 156.124 102.112 155.497C101.816 154.87 101.666 154.145 101.666 153.325C101.666 152.012 102.103 150.911 102.973 150.028C103.848 149.14 104.915 148.696 106.18 148.696C107.055 148.696 107.892 148.893 108.701 149.288C109.509 149.683 109.97 149.88 110.078 149.88C110.328 149.88 110.572 149.801 110.817 149.643C111.056 149.485 111.254 149.278 111.4 149.026C111.456 148.923 111.499 148.824 111.532 148.731C111.565 148.642 111.583 148.553 111.592 148.463L111.605 148.434C111.662 148.193 111.761 148.074 111.911 148.074C112.02 148.074 112.109 148.128 112.17 148.231C112.236 148.34 112.269 148.483 112.269 148.666C112.269 149.392 112.142 149.984 111.883 150.448C111.625 150.911 111.225 151.277 110.674 151.549C110.774 151.776 110.848 152.012 110.9 152.255C110.952 152.496 110.975 152.752 110.975 153.019C110.975 154.421 110.529 155.542 109.64 156.386C108.751 157.229 107.562 157.649 106.071 157.649C105.714 157.649 105.337 157.614 104.942 157.541C104.548 157.472 104.331 157.432 104.298 157.432C103.993 157.432 103.71 157.6 103.447 157.93C103.188 158.266 103.056 158.631 103.056 159.036C103.056 159.584 103.339 159.964 103.899 160.171C104.458 160.378 105.944 160.482 108.361 160.482C109.579 160.482 110.449 160.689 110.971 161.104C111.488 161.519 111.747 162.205 111.747 163.172C111.747 164.49 111.215 165.521 110.157 166.261C109.095 167.007 107.618 167.377 105.728 167.377C104.26 167.377 103.09 167.106 102.215 166.563C101.345 166.015 100.908 165.29 100.908 164.386C100.908 163.814 101.072 163.315 101.397 162.891C101.721 162.461 102.24 162.071 102.949 161.726Z" fill="#333335"/>
<path fill-rule="evenodd" clip-rule="evenodd" d="M122.921 157.674V144.85C122.921 143.962 122.86 143.36 122.733 143.044C122.61 142.724 122.399 142.437 122.093 142.175C121.957 142.062 121.807 141.968 121.647 141.899C121.487 141.835 121.303 141.79 121.101 141.77C121.088 141.761 121.063 141.75 121.036 141.741C120.748 141.662 120.607 141.534 120.607 141.351C120.607 141.178 120.64 141.06 120.711 141.005C120.782 140.946 120.922 140.912 121.144 140.902C121.237 140.902 121.581 140.931 122.178 140.996C122.775 141.06 123.321 141.09 123.819 141.09C124.689 141.09 125.564 141.035 126.434 140.931C126.603 140.911 126.697 140.902 126.726 140.902C126.852 140.902 126.951 140.936 127.022 141.005C127.092 141.07 127.126 141.169 127.126 141.292C127.126 141.504 126.928 141.682 126.532 141.815L126.505 141.828C126.457 141.849 126.401 141.873 126.326 141.903C126.049 142.016 125.851 142.129 125.733 142.248C125.494 142.47 125.324 142.747 125.23 143.087C125.131 143.423 125.084 144.01 125.084 144.849V158.61C125.084 159.336 125.235 159.824 125.54 160.086C125.841 160.348 126.425 160.475 127.29 160.475C128.456 160.475 129.571 160.348 130.628 160.091C131.691 159.839 132.542 159.503 133.187 159.089C133.563 158.827 133.916 158.481 134.249 158.048C134.579 157.613 134.799 157.396 134.908 157.396C134.983 157.396 135.044 157.44 135.086 157.534C135.134 157.623 135.157 157.746 135.157 157.904C135.157 158.171 135.068 158.546 134.889 159.024C134.71 159.498 134.48 159.928 134.207 160.303C133.822 160.816 133.384 161.182 132.905 161.409C132.42 161.636 131.809 161.749 131.066 161.749C130.836 161.749 130.14 161.719 128.978 161.66C127.817 161.606 126.772 161.576 125.855 161.576C124.322 161.576 122.884 161.631 121.543 161.734C121.369 161.745 121.261 161.748 121.228 161.748C121.153 161.748 121.087 161.714 121.026 161.639C120.965 161.565 120.936 161.486 120.936 161.402C120.936 161.274 120.97 161.175 121.04 161.092C121.111 161.008 121.256 160.909 121.487 160.795C121.506 160.786 121.529 160.775 121.557 160.766C121.868 160.603 122.093 160.44 122.23 160.272C122.479 160.006 122.658 159.69 122.761 159.334C122.87 158.979 122.921 158.422 122.921 157.671L122.921 157.674ZM137.612 144.401C137.612 144.12 137.772 143.784 138.087 143.389C138.401 142.994 138.656 142.797 138.849 142.797C139.027 142.797 139.271 142.99 139.587 143.37C139.902 143.749 140.062 144.066 140.062 144.317C140.062 144.554 139.911 144.87 139.606 145.26C139.305 145.65 139.032 145.847 138.797 145.847C138.557 145.847 138.298 145.68 138.026 145.349C137.748 145.018 137.612 144.702 137.612 144.401ZM137.748 158.359V153.019C137.748 152.017 137.663 151.37 137.494 151.084C137.325 150.793 137.005 150.65 136.535 150.65C136.267 150.65 136.07 150.62 135.942 150.561C135.815 150.506 135.75 150.418 135.75 150.304C135.75 150.111 135.975 149.949 136.427 149.826H136.45C136.662 149.786 136.873 149.732 137.08 149.667C137.287 149.598 137.499 149.51 137.72 149.406C137.988 149.292 138.322 149.12 138.726 148.893C139.131 148.666 139.399 148.552 139.526 148.552C139.643 148.552 139.728 148.582 139.775 148.641C139.822 148.695 139.841 148.829 139.841 149.031C139.841 149.07 139.836 149.218 139.83 149.48C139.783 150.926 139.76 152.387 139.76 153.873V158.384C139.76 159.159 139.826 159.697 139.957 159.998C140.093 160.304 140.343 160.556 140.71 160.758C140.818 160.817 140.94 160.857 141.077 160.887C141.208 160.916 141.363 160.931 141.538 160.931C141.819 160.951 142.003 160.995 142.088 161.059C142.167 161.128 142.21 161.232 142.21 161.38C142.21 161.473 142.163 161.558 142.074 161.627C141.979 161.691 141.866 161.725 141.725 161.725C141.664 161.725 141.33 161.701 140.738 161.651C140.141 161.607 139.576 161.582 139.055 161.582C138.293 161.582 137.559 161.627 136.849 161.711C136.741 161.72 136.671 161.726 136.642 161.726C136.553 161.726 136.473 161.696 136.411 161.633C136.346 161.568 136.312 161.495 136.312 161.411C136.312 161.312 136.341 161.228 136.397 161.154C136.449 161.085 136.552 161.011 136.698 160.932C136.727 160.912 136.773 160.882 136.835 160.843C137.037 160.69 137.187 160.562 137.277 160.453C137.451 160.221 137.573 159.969 137.643 159.688C137.714 159.406 137.747 158.968 137.747 158.36L137.748 158.359ZM148.381 161.419L144.553 151.8C144.351 151.311 144.158 150.941 143.979 150.69C143.8 150.437 143.594 150.245 143.354 150.111C143.288 150.072 143.175 150.023 143.01 149.964C142.742 149.88 142.611 149.747 142.611 149.574C142.611 149.47 142.653 149.386 142.733 149.322C142.817 149.258 142.931 149.228 143.081 149.228C143.17 149.228 143.349 149.248 143.608 149.283C143.871 149.322 144.087 149.342 144.261 149.342C144.825 149.342 145.461 149.322 146.171 149.283C146.88 149.248 147.313 149.228 147.459 149.228C147.661 149.228 147.793 149.248 147.85 149.292C147.91 149.337 147.939 149.421 147.939 149.544C147.939 149.757 147.69 149.905 147.181 149.979C147.134 149.988 147.111 149.992 147.101 149.992C146.88 150.041 146.711 150.135 146.589 150.269C146.471 150.402 146.41 150.565 146.41 150.762C146.41 150.826 146.419 150.895 146.433 150.964C146.448 151.029 146.467 151.112 146.495 151.207L149.402 158.728C149.438 158.807 149.467 158.852 149.486 158.872C149.501 158.892 149.528 158.906 149.566 158.916C149.594 158.916 149.627 158.901 149.669 158.867C149.712 158.832 149.744 158.788 149.773 158.728L151.907 153.867C152.147 153.329 152.326 152.83 152.448 152.371C152.566 151.912 152.627 151.487 152.627 151.093C152.627 150.758 152.561 150.511 152.439 150.358C152.317 150.2 152.072 150.081 151.715 149.992C151.663 149.983 151.583 149.968 151.48 149.948C151.112 149.903 150.929 149.775 150.929 149.573C150.929 149.449 150.962 149.36 151.028 149.306C151.089 149.252 151.197 149.227 151.343 149.227C151.456 149.227 151.724 149.247 152.157 149.282C152.589 149.321 152.97 149.341 153.3 149.341C153.595 149.341 153.934 149.321 154.32 149.282C154.706 149.247 154.95 149.227 155.049 149.227C155.199 149.227 155.308 149.261 155.388 149.33C155.468 149.395 155.505 149.504 155.505 149.647C155.495 149.81 155.388 149.918 155.176 149.963C155.053 149.992 154.959 150.022 154.884 150.052C154.729 150.11 154.592 150.209 154.471 150.358C154.353 150.501 154.197 150.777 154.005 151.182L149.402 161.433C149.307 161.646 149.227 161.784 149.152 161.858C149.081 161.932 148.992 161.966 148.893 161.966C148.686 161.966 148.531 161.823 148.423 161.532C148.413 161.493 148.4 161.453 148.381 161.418L148.381 161.419ZM158.938 153.379H162.808C163.744 153.379 164.332 153.335 164.562 153.251C164.798 153.162 164.915 152.999 164.915 152.758C164.915 151.938 164.609 151.212 163.993 150.585C163.377 149.959 162.653 149.648 161.816 149.648C161.026 149.648 160.377 149.979 159.865 150.64C159.356 151.301 159.046 152.214 158.938 153.379ZM158.882 154.144C158.882 156.064 159.295 157.594 160.123 158.739C160.946 159.879 162.06 160.452 163.452 160.452C164.501 160.452 165.569 160.062 166.65 159.282C166.942 159.08 167.13 158.976 167.2 158.976C167.285 158.976 167.337 158.987 167.36 159.011C167.383 159.036 167.393 159.09 167.393 159.178C167.393 159.292 167.346 159.43 167.247 159.583C167.153 159.737 166.993 159.919 166.772 160.131C166.105 160.778 165.399 161.257 164.666 161.563C163.932 161.873 163.132 162.026 162.267 162.026C160.762 162.026 159.488 161.419 158.444 160.21C157.405 159.001 156.883 157.521 156.883 155.768C156.883 153.898 157.41 152.283 158.468 150.931C159.521 149.574 160.772 148.898 162.215 148.898C163.048 148.898 163.801 149.07 164.458 149.416C165.122 149.766 165.705 150.285 166.208 150.98C166.542 151.415 166.791 151.854 166.965 152.309C167.139 152.762 167.228 153.187 167.228 153.582C167.228 153.804 167.182 153.951 167.092 154.03C166.998 154.105 166.73 154.144 166.278 154.144H158.882ZM169.547 160.334L169.519 157.876C169.519 157.663 169.547 157.505 169.608 157.407C169.669 157.303 169.758 157.254 169.876 157.254C170.05 157.254 170.177 157.476 170.252 157.92C170.313 158.266 170.379 158.547 170.445 158.759C170.699 159.539 171.061 160.126 171.531 160.526C172.001 160.926 172.57 161.128 173.238 161.128C173.948 161.128 174.527 160.901 174.983 160.442C175.439 159.983 175.665 159.396 175.665 158.67C175.665 157.792 174.814 156.943 173.116 156.113C172.796 155.956 172.547 155.832 172.373 155.739C171.442 155.284 170.784 154.8 170.388 154.282C169.993 153.769 169.796 153.137 169.796 152.397C169.796 151.346 170.13 150.512 170.802 149.889C171.47 149.268 172.382 148.957 173.53 148.957C174.428 148.957 175.124 149.051 175.617 149.243C176.107 149.436 176.356 149.707 176.366 150.053L176.393 151.716C176.393 151.904 176.374 152.032 176.337 152.111C176.3 152.185 176.238 152.224 176.144 152.224C175.999 152.224 175.886 152.071 175.801 151.77C175.716 151.464 175.636 151.252 175.552 151.124C175.251 150.67 174.879 150.314 174.438 150.063C173.995 149.806 173.544 149.678 173.073 149.678C172.486 149.678 172.016 149.835 171.663 150.157C171.31 150.472 171.131 150.891 171.131 151.415C171.131 152.348 172.213 153.3 174.372 154.278C174.527 154.342 174.644 154.396 174.729 154.435C175.519 154.8 176.097 155.255 176.469 155.793C176.84 156.336 177.029 156.997 177.029 157.792C177.029 159.006 176.647 160.008 175.886 160.802C175.124 161.597 174.16 161.997 172.989 161.997C172.302 161.997 171.531 161.775 170.675 161.331C170.445 161.217 170.294 161.148 170.219 161.128C170.177 161.119 170.111 161.103 170.027 161.084C169.707 161.02 169.547 160.768 169.547 160.334Z" fill="#333335"/>
<path fill-rule="evenodd" clip-rule="evenodd" d="M46.8296 122.11H133.524V3.33504H46.8296V122.11Z" fill="white"/>
<path fill-rule="evenodd" clip-rule="evenodd" d="M84.9093 66.1518C84.9093 64.4423 85.323 60.965 85.7749 60.5912C86.1886 60.2377 84.9469 66.0145 84.9093 66.1518ZM94.4287 65.0909C94.015 65.1498 93.9588 64.6195 94.2973 64.5405C94.6922 64.4816 94.7674 65.0123 94.4287 65.0909ZM107.016 62.2814C107.091 61.0632 106.639 61.6918 105.36 62.1828C105.699 61.6135 107.317 60.4147 107.806 61.0632C107.956 61.397 107.655 62.2221 107.016 62.2814ZM115.237 61.9476C113.883 61.5736 115.576 57.7427 116.761 58.3519C117.288 58.8034 116.329 59.1375 117.043 59.4519C117.645 59.6488 117.853 59.4519 118.116 59.2357C117.946 60.356 116.63 62.3404 115.237 61.9476ZM106.206 57.4872C107.072 50.9049 108.671 51.9855 106.206 57.4872V57.4872ZM70.0087 66.7608L70.366 63.8333L73.3007 63.2045L72.9058 66.1322L70.0087 66.7608ZM133.468 58.4696C133.186 57.3493 131.794 56.9956 130.138 58.4696C129.197 59.314 128.877 60.5519 127.993 59.2944C127.635 58.4499 129.197 54.5398 130.533 53.4789C130.533 53.4789 129.78 52.2017 129.479 51.6907L126.337 52.4965C126.337 52.2997 126.318 52.0246 126.3 51.8677L123.572 52.4965C123.045 55.9543 122.199 61.5539 120.787 62.0259C119.621 62.3404 121.596 56.6615 121.916 53.8719L118.567 54.5595C118.812 55.3256 118.812 55.4635 118.642 55.9346C117.307 54.9326 114.993 55.1491 112.942 59.5303C112.227 61.0435 112.284 62.5562 112.151 64.2268C109.894 66.6236 108.727 65.3464 107.561 64.0496C109.687 62.8117 111.437 60.7095 111.418 58.4106C111.399 56.7007 108.596 56.7007 107.298 57.7818C108.295 55.8956 109.161 53.9895 109.179 52.0835C109.179 50.9442 109.311 47.8197 107.768 47.6041C105.793 47.3486 103.742 61.6135 103.742 61.6135L101.879 62.5169C101.785 61.0632 102.5 59.2551 103.629 58.6461L100.769 58.5283C99.5841 59.5499 100.242 63.0868 95.9153 64.3051C95.633 63.5385 95.1441 62.7331 94.2411 62.7528C91.6444 63.2045 92.0585 66.4856 93.9962 66.8001C94.2411 68.0773 92.9242 69.905 92.0962 69.5905C90.7224 68.51 91.1555 65.0123 92.3596 63.7351C92.9806 63.2835 92.9994 62.5959 92.1902 62.7135C90.1961 63.0476 88.54 66.8197 88.6157 69.3547C86.2637 72.4004 85.4927 70.3761 85.248 68.8441C86.3013 66.9969 89.2178 57.9583 87.4868 55.2667C87.2983 54.9523 86.7344 54.8936 86.5085 55.2078C83.2915 59.216 82.971 65.4053 83.0093 70.1212C82.6513 71.0839 81.3908 72.8521 80.3374 72.8521C79.3403 72.8521 80.6948 69.2564 81.4853 68.6276L80.5258 66.3484L77.8163 66.9576L77.8727 66.4269L74.6745 66.9773C74.9192 69.2957 73.8089 76.2315 72.3037 76.2315C71.4951 76.2315 72.4358 73.0686 72.9997 67.9989L69.1243 69.1978L69.7076 69.905L69.0117 76.0942C68.6726 76.8798 68.0328 77.2734 67.0922 77.391C63.8001 77.9014 63.2356 70.1605 61.5614 69.4729C64.1574 66.84 66.9043 62.3403 69.3316 59.3734C74.9192 53.9109 77.6469 54.1861 77.7601 56.3666C77.8539 58.5282 80.507 56.5438 80.7698 55.6398C81.8425 51.4349 77.534 49.8435 74.8247 50.8656C64.722 54.6967 63.9878 68.6082 56.9518 69.3154L58.72 57.2511H56.7823C55.7101 58.9409 53.4713 60.7487 51.2509 59.4126L50.0092 65.3267C52.0225 65.3267 54.3363 63.9909 55.6725 62.5169C54.3934 68.0576 54.3934 79.8867 48.2598 80.3382L46.8296 86.0164V3.33569H133.468L133.468 58.4696Z" fill="#224E96"/>
<path fill-rule="evenodd" clip-rule="evenodd" d="M46.8296 122.111V87.7459C54.1299 85.7812 54.807 82.126 56.8009 71.7325C58.0803 71.7325 59.153 71.3391 59.9617 70.6905C61.6552 72.8521 61.3167 76.6046 62.6898 79.1789C64.27 83.128 67.4682 81.9298 69.538 79.1199C70.4788 80.8095 72.6612 79.5527 73.508 78.5703C75.3517 76.487 76.9883 72.2429 77.4022 69.2958C77.8727 69.1192 78.3621 69.0989 78.8886 68.942C77.1956 71.6535 75.5778 78.8841 79.5845 77.2335C81.2218 76.4283 82.2 74.7189 83.4041 73.1862C84.6647 77.8231 88.1828 73.8151 89.1422 71.7718C89.5183 73.0293 90.5534 73.5986 91.6256 73.5399C94.2599 73.1076 95.8965 70.1802 96.0467 66.0536C96.931 65.6805 98.0601 65.3268 99.0383 64.7177C99.0383 65.8771 99.3582 67.6452 98.5114 68.3134C97.232 69.1585 98.5306 67.1342 97.2509 66.84C96.3664 66.7414 95.633 69.4729 96.16 70.2585C96.6113 71.0639 97.8904 71.477 98.8881 71.2998C101.935 70.7102 102.613 66.8001 102.124 64.2268L103.366 63.7548C103.083 66.0146 102.801 68.0773 102.745 70.1409L105.718 68.8833C105.586 68.431 105.191 67.4093 105.378 66.8597C107.072 68.903 111.173 68.4709 112.678 65.8771C113.713 67.3308 116.103 67.3897 118.21 64.9144C118.906 65.7981 119.753 65.8577 120.43 65.464C122.424 64.3248 124.155 60.1199 124.851 55.5419L126.676 55.0502C125.547 57.7034 124.23 61.1219 125.322 62.6352C127.033 64.5013 130.213 62.6352 130.834 60.6702C131.003 60.1002 131.436 59.4912 131.812 59.5695C133.073 59.8056 131.888 61.5345 129.893 63.0476C128.219 64.3051 125.19 65.6019 122.857 66.5649L59.5481 89.003L55.7289 99.4958L122.725 69.4533C128.651 66.6432 131.869 64.4816 133.524 61.2794V122.111H46.8296Z" fill="#8EAD46"/>
</g>
<defs>
<clipPath id="clip0_276_255">
<rect width="178" height="167" fill="white"/>
</clipPath>
</defs>
</svg>
