<svg width="54" height="54" viewBox="0 0 54 54" fill="none" xmlns="http://www.w3.org/2000/svg">
<rect width="54" height="54" fill="#1E1E1E"/>
<rect width="1280" height="720" transform="translate(-1039 -579)" fill="white"/>
<rect x="-1039" y="-87" width="1280" height="228" fill="#FF5757"/>
<path d="M27.4081 53.1839C42.0944 53.1839 54 41.2783 54 26.5919C54 11.9056 42.0944 0 27.4081 0C12.7218 0 0.816162 11.9056 0.816162 26.5919C0.816162 41.2783 12.7218 53.1839 27.4081 53.1839Z" fill="white"/>
<path d="M36.8144 36.003H32.8671V29.8225C32.8671 28.3475 32.836 26.4518 30.8104 26.4518C28.7537 26.4518 28.4369 28.0566 28.4369 29.7134V36.003H24.4896V23.2888H28.2811V25.0235H28.333C28.8628 24.0263 30.1508 22.972 32.0725 22.972C36.0717 22.972 36.8092 25.6052 36.8092 29.0279L36.8144 36.003ZM20.0386 21.5489C18.7661 21.5489 17.7482 20.5205 17.7482 19.2584C17.7482 17.9964 18.7713 16.968 20.0386 16.968C21.3059 16.968 22.329 17.9964 22.329 19.2584C22.329 20.5205 21.3007 21.5489 20.0386 21.5489ZM22.0174 36.003H18.0598V23.2888H22.0174V36.003ZM38.788 13.296H16.081C14.9955 13.296 14.1125 14.153 14.1125 15.2177V38.0182C14.1125 39.0777 14.9903 39.9399 16.081 39.9399H38.7828C39.8683 39.9399 40.7564 39.0829 40.7564 38.0182V15.2177C40.7564 14.153 39.8683 13.296 38.788 13.296Z" fill="black"/>
</svg>
