<svg width="363" height="253" viewBox="0 0 363 253" fill="none" xmlns="http://www.w3.org/2000/svg">
<path d="M362.446 172.416C360.975 154.038 326.5 156.501 305.191 159.411C305.191 159.411 334.314 133.55 326.98 120.949C319.102 107.411 278.167 129.382 250.718 144.988C250.718 144.881 252.285 112.805 237.638 110.524C213.951 106.836 182.205 189.185 168.486 230.759L238.842 231.239C306.896 211.422 363.896 190.784 362.446 172.416Z" fill="#C3A6FF"/>
<path d="M116.731 232.774C122.551 190.4 127.764 120.736 117.797 115.033C103.075 106.622 90.912 150.03 90.88 150.126C79.6016 117.218 64.4856 80.9954 47.3548 87.1463C27.1007 94.4271 46.598 152.919 46.598 152.919C35.4368 141.193 14.3618 128.401 3.81901 137.995C-11.3823 151.8 20.9498 197.393 62.7267 232.763L116.731 232.774Z" fill="#C3A6FF"/>
<path d="M215.379 2.29193H168.912V35.9992H215.379V2.29193Z" fill="#FF3E6E"/>
<path d="M183.9 48.2369V24.9979H200.381L183.9 48.2369Z" fill="#FF3E6E"/>
<path d="M190.177 19.6593V19.5481C190.189 18.3674 190.313 17.4279 190.548 16.7294C190.782 16.0309 191.116 15.4653 191.549 15.0326C191.982 14.5999 192.501 14.2012 193.107 13.8365C193.471 13.614 193.799 13.3513 194.089 13.0484C194.38 12.7393 194.609 12.3839 194.776 11.9821C194.949 11.5803 195.035 11.1352 195.035 10.6469C195.035 10.0411 194.893 9.51573 194.609 9.07067C194.324 8.62562 193.944 8.28255 193.468 8.04148C192.992 7.80041 192.464 7.67987 191.883 7.67987C191.376 7.67987 190.888 7.78495 190.418 7.99512C189.948 8.20529 189.555 8.53599 189.24 8.98723C188.925 9.43846 188.743 10.0288 188.693 10.7582H186.357C186.406 9.70735 186.678 8.80797 187.173 8.06002C187.673 7.31208 188.332 6.74031 189.147 6.3447C189.97 5.94909 190.881 5.75129 191.883 5.75129C192.971 5.75129 193.916 5.96764 194.72 6.40033C195.53 6.83303 196.154 7.42644 196.593 8.18056C197.038 8.93468 197.26 9.79389 197.26 10.7582C197.26 11.4381 197.155 12.0532 196.945 12.6033C196.741 13.1535 196.445 13.6449 196.055 14.0776C195.672 14.5103 195.208 14.8935 194.664 15.2273C194.12 15.5673 193.685 15.9258 193.357 16.3028C193.029 16.6737 192.791 17.1157 192.643 17.6287C192.495 18.1418 192.414 18.7816 192.402 19.5481V19.6593H190.177ZM191.363 25.1484C190.906 25.1484 190.514 24.9845 190.186 24.6569C189.858 24.3293 189.695 23.9368 189.695 23.4794C189.695 23.022 189.858 22.6295 190.186 22.3018C190.514 21.9742 190.906 21.8104 191.363 21.8104C191.821 21.8104 192.213 21.9742 192.541 22.3018C192.869 22.6295 193.032 23.022 193.032 23.4794C193.032 23.7823 192.955 24.0604 192.801 24.3139C192.652 24.5673 192.451 24.7713 192.198 24.9258C191.951 25.0742 191.673 25.1484 191.363 25.1484Z" fill="white"/>
<path d="M347.65 213.586H309.412V226.762H347.65V213.586Z" fill="#FF3E6E"/>
<path d="M280.278 226.751H309.412V213.575H280.278V226.751Z" fill="#FEFFFE"/>
<path d="M309.412 216.293H280.278V217.445H309.412V216.293Z" fill="#B793FF"/>
<path d="M309.412 222.881H280.278V224.033H309.412V222.881Z" fill="#B793FF"/>
<path d="M309.412 219.587H280.278V220.739H309.412V219.587Z" fill="#B793FF"/>
<path d="M347.66 211.731H279.212V213.586H347.66V211.731Z" fill="#FF3E6E"/>
<path d="M347.66 226.751H279.212V228.606H347.66V226.751Z" fill="#FF3E6E"/>
<path d="M291.599 180.849H310.233L309.156 176.904H292.676L291.599 180.849Z" fill="#330099"/>
<path d="M293.656 211.614H308.164L311.746 183.492H290.074L293.656 211.614Z" fill="white"/>
<path d="M311.875 189.185L310.094 203.16H291.727L289.947 189.185H311.875Z" fill="#B793FF"/>
<path d="M289.595 184.313H312.237V180.369H289.595V184.313Z" fill="#110033"/>
<path d="M108.735 85.2274C108.138 84.0335 94.1631 55.6883 102.265 35.5621C104.898 28.9421 112.999 23.5268 121.773 22.5461C130.994 21.4801 139.117 25.1898 144.639 33.0143L140.534 35.8925C138.597 32.9285 135.863 30.571 132.646 29.0907C129.429 27.6105 125.86 27.0676 122.348 27.5244C115.483 28.3132 108.831 32.5986 106.87 37.4809C99.5997 55.4858 112.999 82.7117 113.181 82.9888L108.735 85.2274Z" fill="#110033"/>
<path d="M61.3089 232.774H168.134C170.289 219.86 171.606 206.82 172.078 193.737C172.632 178.876 172.078 163.771 167.654 149.593C163.23 135.415 154.404 122.133 141.494 114.767C128.585 107.4 73.3868 102.753 58.3454 142.771C52.4291 158.494 51.3418 175.604 53.1646 192.308C54.659 206.014 57.3848 219.557 61.3089 232.774Z" fill="#2B0080"/>
<path d="M185.893 141.31C186.544 132.846 176.64 126.493 176.811 118.007C176.96 110.801 184.166 105.908 187.013 99.2775C190.562 90.9946 186.842 81.5177 182.749 73.4587C175.404 58.7265 166.3 43.9942 152.058 35.5834C131.804 23.5801 98.6618 32.0336 93.2144 56.9675C91.4662 65.0266 91.9032 73.4374 90.1763 81.4858C88.4494 89.5341 83.6843 97.8064 75.7639 100.109C70.9988 101.495 65.8926 100.503 60.925 100.695C55.9574 100.887 50.3395 102.934 48.7832 107.656C46.0115 116.088 57.8336 122.122 60.0615 130.725C61.8311 137.537 57.1833 144.359 57.0021 151.395C56.7036 163.153 69.4211 171.787 81.1792 171.787C92.9373 171.787 103.672 165.541 113.895 159.742C124.118 153.942 135.215 148.133 146.941 148.9C154.403 149.391 161.588 152.557 169.093 152.823C176.598 153.09 185.318 148.794 185.893 141.31Z" fill="#1E0059"/>
<path d="M271.516 98.1688C271.366 97.2734 271.068 96.1861 270.172 95.9729C269.898 95.9061 269.611 95.9232 269.346 96.0221C269.082 96.1209 268.854 96.2969 268.691 96.5272C267.518 98.4247 266.751 105.375 265.365 111.782L272.368 103.424C272.081 101.676 271.835 99.9171 271.516 98.1688Z" fill="#FFA18F"/>
<path d="M263.947 118.892L271.953 125.022C286.685 115.758 287.804 112.528 278.519 102.134C274.532 97.6571 269.234 105.972 266.153 109.405C265.354 110.311 264.373 117.73 263.947 118.892Z" fill="#FFA18F"/>
<path d="M282.58 92.7322C282.103 92.8768 281.666 93.1284 281.301 93.4677C276.59 97.3269 272.455 101.839 269.021 106.867C269.17 106.921 271.728 111.377 271.728 111.377L283.667 95.2266C284.083 94.6617 284.51 93.8728 284.041 93.2226C283.866 93.0138 283.637 92.8575 283.38 92.7709C283.122 92.6843 282.845 92.6709 282.58 92.7322Z" fill="#FFA18F"/>
<path d="M288.209 93.1266C287.736 93.2778 287.302 93.5328 286.94 93.8728C282.272 97.7776 278.162 102.304 274.724 107.326C274.873 107.326 277.261 111.696 277.261 111.696L289.2 95.5571C289.627 94.9815 290.053 94.2033 289.605 93.5743C289.442 93.3713 289.222 93.2207 288.974 93.1411C288.726 93.0615 288.46 93.0565 288.209 93.1266Z" fill="#FFA18F"/>
<path d="M290.917 97.5399C290.436 97.6758 289.997 97.9285 289.638 98.2754C284.92 102.127 280.784 106.64 277.357 111.675C277.506 111.675 280.065 116.184 280.065 116.184L292.004 100.034C292.42 99.4587 292.846 98.6698 292.377 98.0196C292.202 97.8117 291.973 97.6568 291.715 97.572C291.457 97.4873 291.181 97.4761 290.917 97.5399Z" fill="#FFA18F"/>
<path d="M292.089 104.512C291.706 104.577 291.342 104.726 291.023 104.949C286.749 107.464 282.863 110.588 279.489 114.223C279.606 114.223 281.28 118.348 281.28 118.348C285.485 114.898 289.293 110.99 292.633 106.697C292.995 106.249 293.475 105.706 293.187 105.13C293.08 104.935 292.92 104.773 292.726 104.664C292.532 104.555 292.312 104.502 292.089 104.512Z" fill="#FFA18F"/>
<path d="M262.7 115.694C240.314 142.621 228.47 156.778 228.47 156.778C192.567 119.734 168.465 117.016 168.465 117.016C169.104 142.163 177.59 160.285 195.882 173.802C206.852 181.904 226.274 188.726 235.879 193.3C254.001 171.66 264 151.15 277.368 125.917C272.699 121.546 262.7 115.694 262.7 115.694Z" fill="#BF2E52"/>
<path d="M95.0586 232.774H198.685C198.87 228.915 199.08 224.818 199.314 220.483C201.18 186.157 204.644 146.928 192.748 130.512C185.104 119.99 168.741 116.195 158.102 115.523C145.345 114.905 132.569 116.264 120.227 119.553C109.866 122.218 98.6511 124.67 90.7093 133.923C86.2001 139.168 85.9549 146.992 86.5625 153.942C87.6392 166.18 91.8393 201.955 95.0586 232.774Z" fill="#FF3E6E"/>
<path d="M156.301 115.427C145.693 115.012 135.076 115.998 124.726 118.359C129.509 131.188 135.633 143.476 142.997 155.019C144.735 157.727 147.261 160.839 150.225 160.061C157.932 157.983 157.452 127.697 156.301 115.427Z" fill="#FFA18F"/>
<path d="M141.782 232.774H158.252C162.979 208.708 164.591 184.134 163.049 159.656C161.855 140.607 161.098 130.874 158.401 115.513L157.41 115.438C144.871 114.662 132.293 116.054 120.228 119.553C139.65 158.494 145.236 195.719 141.782 232.774Z" fill="white"/>
<mask id="mask0_176_367" style="mask-type:luminance" maskUnits="userSpaceOnUse" x="120" y="115" width="44" height="118">
<path d="M141.782 232.774H158.252C162.979 208.708 164.591 184.134 163.049 159.656C161.855 140.607 161.098 130.874 158.401 115.513L157.41 115.438C144.871 114.662 132.293 116.054 120.228 119.553C139.65 158.494 145.236 195.719 141.782 232.774Z" fill="white"/>
</mask>
<g mask="url(#mask0_176_367)">
<path d="M187.802 212.296L179.764 211.144C179.903 210.206 180.223 207.03 180.51 204.215C180.51 203.736 180.606 203.256 180.66 202.787C154.649 208.373 133.947 206.944 117.509 198.523L115.814 197.649L115.399 195.794C115.081 194.12 114.906 192.423 114.876 190.72C114.862 189.487 114.752 188.257 114.546 187.042L113.256 181.232L119.13 182.149C136.751 184.899 158.316 182.757 177.664 180.017C177.515 178.674 177.323 177.181 177.142 175.753C176.961 174.325 176.811 173.195 176.673 172.022C159.446 175.977 140.343 179.74 121.635 175.625L119.151 175.081L118.554 172.608C118.034 170.202 117.72 167.755 117.616 165.295C117.531 163.286 117.285 161.286 116.88 159.315L115.729 154.518L120.654 154.305C138.851 153.527 156.099 152.791 173.336 145.851L172.377 135.81C154.841 142.707 135.408 144.881 114.524 142.27L115.526 134.211C136.985 136.886 156.728 134.211 174.157 126.216L179.348 123.838L181.939 150.968L179.252 152.152C161.205 160.115 143.754 161.404 125.483 162.225C125.558 163.067 125.611 163.899 125.675 164.73C125.76 165.935 125.845 167.097 125.973 168.216C143.786 171.34 162.623 166.948 179.338 163.046L184.241 161.906L184.316 166.948C184.316 168.355 184.774 171.734 185.158 174.719C185.606 178.226 186.032 181.531 186.064 183.407V186.978L182.525 187.49C163.422 190.272 141.676 192.756 122.925 190.794C122.925 191.263 122.925 191.722 122.999 192.17C138.542 199.429 158.604 199.887 184.252 193.587L190.104 192.148L189.241 198.107C189.113 199.045 188.783 202.222 188.495 205.036C188.271 208.224 187.962 211.23 187.802 212.296Z" fill="#C3A6FF"/>
</g>
<path d="M173.229 202.606C173.148 202.343 172.999 202.105 172.797 201.918C172.595 201.731 172.347 201.601 172.078 201.54C171.533 201.422 170.97 201.422 170.426 201.54C166.158 202.108 162.093 203.707 158.582 206.198L167.473 207.872L171.833 204.823C172.579 204.247 173.421 203.501 173.229 202.606Z" fill="#FF7357"/>
<path d="M153.668 204.397L154.073 219.417C157.58 222.519 173.709 222.284 176.363 208.597C177.888 200.772 157.26 204.631 153.668 204.397Z" fill="#FFA18F"/>
<path d="M186.363 206.358C185.965 206.052 185.502 205.844 185.009 205.751C179.116 204.227 173.034 203.559 166.951 203.768C166.951 203.917 164.893 208.607 164.893 208.607L184.977 208.746C185.691 208.746 186.576 208.629 186.821 207.872C186.9 207.602 186.898 207.316 186.817 207.047C186.735 206.778 186.578 206.539 186.363 206.358Z" fill="#FFA18F"/>
<path d="M189.347 211.134C188.949 210.84 188.49 210.64 188.004 210.547C182.083 209.062 175.984 208.402 169.882 208.586C169.882 208.735 167.835 213.212 167.835 213.212L187.919 213.362C188.622 213.362 189.518 213.255 189.763 212.53C189.834 212.282 189.833 212.019 189.759 211.771C189.685 211.524 189.542 211.303 189.347 211.134Z" fill="#FFA18F"/>
<path d="M186.938 215.377C186.538 215.077 186.075 214.873 185.584 214.78C179.694 213.234 173.612 212.545 167.526 212.733C167.526 212.893 165.479 217.583 165.479 217.583L185.552 217.722C186.266 217.722 187.151 217.604 187.396 216.848C187.463 216.584 187.456 216.307 187.375 216.047C187.294 215.788 187.143 215.555 186.938 215.377Z" fill="#FFA18F"/>
<path d="M183.356 219.758C182.992 219.481 182.575 219.281 182.13 219.172C176.704 217.487 171.089 216.484 165.415 216.187C165.415 216.315 163.208 219.928 163.208 219.928L181.928 221.538C182.589 221.591 183.42 221.538 183.697 220.963C183.775 220.751 183.783 220.521 183.722 220.305C183.661 220.088 183.533 219.897 183.356 219.758Z" fill="#FFA18F"/>
<path d="M109.204 198.288C112.115 180.859 112.744 156.373 103.235 138.709C102.339 137.046 86.4131 187.991 90.7305 210.771C110.441 210.953 129.363 208.373 148.956 206.305C131.644 201.401 122.849 200.388 109.204 198.288Z" fill="#BF2E52"/>
<path d="M156.152 204.471C121.229 202.243 101.178 201.636 101.178 201.636C117.232 150.67 97.3613 127.953 94.6643 130.042C70.2633 148.879 72.2781 199.941 77.6081 227.753C105.772 229.682 128.841 226.538 157.111 222.487C158.017 216.479 157.691 210.349 156.152 204.471Z" fill="#FF3E6E"/>
<path d="M358.949 236.814H37.5151C36.4388 236.811 35.4074 236.382 34.6463 235.621C33.8852 234.86 33.4564 233.829 33.4536 232.752C33.4564 231.677 33.8856 230.647 34.647 229.887C35.4083 229.128 36.4398 228.702 37.5151 228.702H358.949C359.481 228.702 360.008 228.806 360.499 229.01C360.991 229.214 361.437 229.512 361.813 229.888C362.189 230.264 362.488 230.711 362.691 231.202C362.895 231.694 363 232.221 363 232.752C363 233.828 362.573 234.859 361.814 235.621C361.055 236.382 360.024 236.811 358.949 236.814Z" fill="#1E0059"/>
<path d="M205.295 252.495H81.0836C80.5507 252.495 80.0231 252.39 79.5309 252.186C79.0387 251.981 78.5917 251.682 78.2154 251.305C77.8391 250.928 77.541 250.48 77.338 249.987C77.1351 249.494 77.0313 248.966 77.0327 248.434C77.0327 247.902 77.1375 247.375 77.3411 246.883C77.5446 246.392 77.843 245.945 78.2192 245.569C78.5953 245.193 79.0419 244.895 79.5334 244.691C80.0248 244.487 80.5516 244.383 81.0836 244.383H205.295C206.37 244.383 207.402 244.809 208.163 245.568C208.925 246.328 209.354 247.358 209.356 248.434C209.356 249.511 208.929 250.544 208.167 251.305C207.405 252.067 206.372 252.495 205.295 252.495Z" fill="#2B0080"/>
<path d="M238.022 252.495H226.381C225.847 252.496 225.318 252.392 224.825 252.189C224.332 251.985 223.883 251.686 223.506 251.309C223.128 250.931 222.829 250.483 222.626 249.989C222.422 249.496 222.318 248.967 222.319 248.434C222.319 247.901 222.424 247.373 222.629 246.881C222.833 246.389 223.132 245.942 223.51 245.565C223.887 245.189 224.335 244.891 224.827 244.688C225.32 244.485 225.848 244.381 226.381 244.383H238.022C239.097 244.383 240.128 244.809 240.89 245.569C241.651 246.328 242.08 247.358 242.083 248.434C242.083 249.511 241.655 250.544 240.894 251.305C240.132 252.067 239.099 252.495 238.022 252.495Z" fill="#5500FF"/>
<path d="M292.217 228.723H201.83L213.93 160.083H304.327L292.217 228.723Z" fill="#5500FF"/>
<path d="M200.199 228.723H158.71C158.085 228.725 157.467 228.59 156.9 228.326C156.333 228.063 155.831 227.678 155.429 227.199C155.027 226.72 154.735 226.158 154.575 225.554C154.414 224.95 154.389 224.317 154.5 223.702C154.671 222.71 155.187 221.81 155.958 221.163C156.729 220.515 157.704 220.161 158.71 220.163H201.713L200.199 228.723Z" fill="#2B0080"/>
<path d="M198.579 228.723L210.678 160.083H213.93L201.83 228.723H198.579Z" fill="#2B0080"/>
<path d="M251.581 204.642C250.276 204.671 248.982 204.409 247.791 203.876C246.6 203.343 245.542 202.553 244.694 201.561C243.854 200.531 243.252 199.328 242.929 198.038C242.607 196.748 242.573 195.403 242.829 194.099C243.353 191.355 244.804 188.874 246.939 187.071C249.073 185.269 251.762 184.254 254.555 184.196C255.861 184.167 257.157 184.428 258.35 184.961C259.542 185.494 260.602 186.285 261.452 187.277C262.292 188.307 262.894 189.51 263.215 190.8C263.535 192.09 263.567 193.435 263.307 194.739C262.782 197.483 261.332 199.964 259.197 201.766C257.063 203.569 254.374 204.584 251.581 204.642ZM254.502 188.076C252.646 188.168 250.873 188.871 249.46 190.076C248.046 191.282 247.072 192.921 246.688 194.739C246.534 195.479 246.544 196.245 246.717 196.981C246.89 197.718 247.222 198.408 247.69 199.003C248.174 199.553 248.774 199.989 249.447 200.278C250.12 200.568 250.849 200.704 251.581 200.676C253.437 200.588 255.212 199.886 256.626 198.68C258.04 197.474 259.014 195.833 259.395 194.014C259.551 193.273 259.542 192.507 259.369 191.77C259.195 191.033 258.862 190.343 258.393 189.75C257.911 189.205 257.316 188.773 256.649 188.484C255.982 188.195 255.26 188.056 254.534 188.076H254.502Z" fill="white"/>
<path d="M150.161 101.74C150.161 101.74 151.909 117.421 151.92 117.421C152.174 120.321 151.314 123.209 149.513 125.496C147.712 127.784 145.107 129.299 142.229 129.732C139.35 130.166 136.414 129.485 134.02 127.83C131.626 126.174 129.952 123.668 129.342 120.822C127.7 112.294 126.144 104.053 124.427 95.3546C132.028 98.0623 142.56 99.075 150.161 101.74Z" fill="#FFA18F"/>
<path d="M130.056 108.893C139.053 119.937 148.978 118.316 151.867 116.792C151.621 114.596 150.8 107.326 150.406 103.744C142.635 100.407 132.135 98.7658 124.449 95.3652C125.792 100.013 126.933 105.109 130.056 108.893Z" fill="#FF7357"/>
<path d="M157.484 57.7244C154.51 51.8294 146.099 48.5567 140.044 47.1816C132.103 45.3693 120.046 45.2201 114.769 52.5969C110.59 58.4493 111.049 66.7108 112.008 73.4693C114.14 88.3935 122.082 109.341 139.842 110.535C154.606 111.526 164.531 96.9855 164.531 83.5431C164.531 74.5354 161.471 65.5915 157.484 57.7244Z" fill="#FFA18F"/>
<path d="M130.791 81.4324C131.004 82.9995 131.996 84.1934 133.008 84.0975C134.021 84.0015 134.671 82.6477 134.469 81.07C134.266 79.4923 133.264 78.309 132.252 78.405C131.239 78.5009 130.589 79.8547 130.791 81.4324Z" fill="#1E0059"/>
<path d="M152.741 77.8613C153.156 79.3964 152.687 80.8248 151.675 81.0594C150.662 81.2939 149.543 80.2172 149.148 78.6822C148.754 77.1471 149.148 75.7186 150.214 75.4841C151.28 75.2496 152.335 76.3263 152.741 77.8613Z" fill="#1E0059"/>
<path d="M145.3 68.8642C145.141 68.8645 144.986 68.8093 144.864 68.7081C144.741 68.6069 144.658 68.4661 144.628 68.3099C144.593 68.1304 144.631 67.9446 144.733 67.7929C144.835 67.6412 144.992 67.5358 145.172 67.4997C147.757 67.0403 150.381 66.8262 153.007 66.8601C153.188 66.8656 153.36 66.9407 153.487 67.0697C153.614 67.1988 153.686 67.3719 153.689 67.553C153.689 67.6435 153.671 67.7331 153.636 67.8166C153.601 67.9001 153.55 67.9758 153.485 68.0392C153.421 68.1027 153.345 68.1528 153.26 68.1864C153.176 68.2201 153.087 68.2367 152.996 68.2353C152.868 68.2459 152.74 68.2459 152.612 68.2353C150.207 68.2198 147.805 68.4267 145.438 68.8535L145.3 68.8642Z" fill="#1E0059"/>
<path d="M127.103 72.4566C126.942 72.4531 126.787 72.3934 126.665 72.2877C126.543 72.182 126.461 72.0371 126.435 71.8778C126.408 71.7186 126.438 71.555 126.519 71.4155C126.6 71.2759 126.728 71.1691 126.879 71.1135C129.343 70.248 131.885 69.6233 134.469 69.248C134.639 69.2453 134.804 69.305 134.933 69.4159C135.061 69.5269 135.145 69.6812 135.167 69.8495C135.19 70.0179 135.149 70.1887 135.054 70.3293C134.959 70.47 134.815 70.5707 134.651 70.6124C132.157 70.974 129.704 71.5774 127.327 72.414C127.255 72.4384 127.179 72.4528 127.103 72.4566Z" fill="#1E0059"/>
<path d="M143.317 88.3509C143.17 88.3529 143.026 88.3073 142.907 88.2208C142.788 88.1344 142.7 88.0117 142.656 87.8711C142.606 87.6959 142.626 87.5079 142.711 87.3468C142.797 87.1857 142.941 87.0641 143.115 87.0077C144.181 86.6772 144.82 86.2188 144.895 85.7391C145.023 84.8757 143.626 83.6071 142.933 83.1487C142.782 83.0469 142.678 82.8892 142.643 82.7103C142.608 82.5314 142.645 82.3459 142.747 82.1946C142.849 82.0434 143.006 81.9388 143.185 81.9038C143.364 81.8688 143.55 81.9063 143.701 82.0081C143.999 82.2106 146.547 84.0015 146.259 85.9417C146.1 87.0077 145.193 87.8072 143.52 88.3189C143.454 88.3398 143.386 88.3506 143.317 88.3509Z" fill="#FF7357"/>
<path d="M118.393 91.6342C117.732 92.8388 110.292 92.3164 108.927 83.3299C108.01 77.2217 112.85 75.8679 115.739 77.9359C120.461 81.2619 120.238 88.2016 118.393 91.6342Z" fill="#FFA18F"/>
<path d="M143.349 94.0327C141.793 94.0404 140.254 93.7152 138.835 93.0791C137.415 92.4429 136.149 91.5105 135.119 90.3443C134.999 90.203 134.94 90.0197 134.955 89.8347C134.97 89.6498 135.058 89.4784 135.199 89.3583C135.34 89.2381 135.524 89.179 135.709 89.194C135.894 89.209 136.065 89.2969 136.185 89.4382C137.243 90.6309 138.582 91.5411 140.08 92.0864C141.579 92.6318 143.189 92.7951 144.767 92.5616C147.677 92.1779 150.214 90.6215 151.227 88.5854C151.311 88.4236 151.455 88.3015 151.629 88.2457C151.803 88.1898 151.991 88.2046 152.154 88.2869C152.315 88.369 152.437 88.5117 152.493 88.6836C152.549 88.8555 152.534 89.0425 152.452 89.2037C151.248 91.6342 148.295 93.4677 144.99 93.9261C144.447 94.0024 143.898 94.038 143.349 94.0327Z" fill="#FF7357"/>
<path d="M102.936 82.8503C110.665 84.3747 121.282 91.8367 127.977 52.0106C133.915 62.9798 149.596 67.6916 165.618 60.3042C166.609 59.8458 149.883 30.6798 121.176 37.918C102.979 42.5444 100.378 65.1865 102.393 80.7502C102.435 81.0594 102.478 82.765 102.936 82.8503Z" fill="#1E0059"/>
<path d="M109.173 84.1508C108.523 82.9249 93.4067 54.0254 102.777 34.2935L107.307 36.4255C99.0672 53.8761 113.501 81.5177 113.704 81.7949L109.173 84.1508Z" fill="#110033"/>
<path d="M117.119 97.7466C121.98 95.4113 123.341 88.1493 120.16 81.5265C116.978 74.9036 110.458 71.4278 105.597 73.7631C100.736 76.0983 99.3747 83.3604 102.556 89.9832C105.738 96.6061 112.258 100.082 117.119 97.7466Z" fill="#330099"/>
<path d="M111.358 85.7498C113.49 90.2697 113.682 94.7043 111.689 95.6531C109.695 96.6018 106.359 93.7236 104.163 89.257C101.967 84.7904 101.839 80.3132 103.832 79.3538C105.826 78.3944 109.194 81.23 111.358 85.7498Z" fill="#110033"/>
<path d="M130.834 103.968C130.651 103.968 130.473 103.904 130.333 103.787L117.136 93.052C116.981 92.9248 116.882 92.742 116.86 92.5428C116.838 92.3437 116.895 92.1438 117.019 91.986C117.147 91.8334 117.33 91.7362 117.528 91.7144C117.726 91.6926 117.926 91.7478 118.085 91.8687L130.941 102.326L135.951 100.61C136.149 100.545 136.364 100.56 136.552 100.652C136.739 100.743 136.883 100.904 136.953 101.1C136.986 101.198 137 101.302 136.994 101.405C136.988 101.509 136.961 101.61 136.915 101.703C136.87 101.796 136.806 101.879 136.729 101.948C136.651 102.016 136.561 102.069 136.463 102.102L131.122 103.925C131.029 103.955 130.932 103.969 130.834 103.968Z" fill="#330099"/>
<path d="M137.945 103.531C139.623 103.531 140.983 102.171 140.983 100.493C140.983 98.8148 139.623 97.4546 137.945 97.4546C136.267 97.4546 134.906 98.8148 134.906 100.493C134.906 102.171 136.267 103.531 137.945 103.531Z" fill="#110033"/>
<path d="M261.889 62.3189H197.364V96.0261H261.889V62.3189Z" fill="#5500FF"/>
<path d="M208.226 109.181V85.9417H224.696L208.226 109.181Z" fill="#5500FF"/>
<path d="M251.026 77.2111H208.226V81.1233H251.026V77.2111Z" fill="white"/>
<path d="M234.962 69.0561H208.226V72.9683H234.962V69.0561Z" fill="white"/>
<path d="M251.026 85.3767H208.226V89.289H251.026V85.3767Z" fill="white"/>
<path d="M16.5579 58.5026L80.188 58.5026V24.7954L16.5579 24.7954L16.5579 58.5026Z" fill="#5500FF"/>
<path d="M69.9862 71.6678V48.4288H53.5164L69.9862 71.6678Z" fill="#5500FF"/>
<path d="M38.8376 41.6596C38.8376 42.1994 38.6776 42.727 38.3777 43.1758C38.0778 43.6246 37.6516 43.9744 37.153 44.1809C36.6543 44.3875 36.1056 44.4415 35.5762 44.3362C35.0469 44.2309 34.5606 43.971 34.1789 43.5893C33.7973 43.2077 33.5374 42.7214 33.4321 42.192C33.3268 41.6627 33.3808 41.114 33.5874 40.6153C33.7939 40.1167 34.1437 39.6904 34.5925 39.3906C35.0413 39.0907 35.5689 38.9307 36.1086 38.9307C36.467 38.9307 36.8219 39.0013 37.153 39.1384C37.4841 39.2755 37.7849 39.4766 38.0383 39.73C38.2917 39.9834 38.4927 40.2842 38.6299 40.6153C38.767 40.9464 38.8376 41.3013 38.8376 41.6596Z" fill="white"/>
<path d="M51.0966 41.6596C51.0966 42.1994 50.9366 42.727 50.6367 43.1758C50.3369 43.6246 49.9107 43.9744 49.412 44.1809C48.9133 44.3875 48.3646 44.4415 47.8353 44.3362C47.3059 44.2309 46.8196 43.971 46.438 43.5893C46.0563 43.2077 45.7964 42.7214 45.6911 42.192C45.5858 41.6627 45.6399 41.114 45.8464 40.6153C46.053 40.1167 46.4027 39.6904 46.8515 39.3906C47.3003 39.0907 47.8279 38.9307 48.3677 38.9307C49.0914 38.9307 49.7856 39.2182 50.2973 39.73C50.8091 40.2418 51.0966 40.9359 51.0966 41.6596Z" fill="white"/>
<path d="M63.3449 41.6596C63.3449 42.1994 63.1849 42.727 62.885 43.1758C62.5852 43.6246 62.1589 43.9744 61.6603 44.1809C61.1616 44.3875 60.6129 44.4415 60.0835 44.3362C59.5542 44.2309 59.0679 43.971 58.6863 43.5893C58.3046 43.2077 58.0447 42.7214 57.9394 42.192C57.8341 41.6627 57.8881 41.114 58.0947 40.6153C58.3012 40.1167 58.651 39.6904 59.0998 39.3906C59.5486 39.0907 60.0762 38.9307 60.6159 38.9307C61.3397 38.9307 62.0338 39.2182 62.5456 39.73C63.0574 40.2418 63.3449 40.9359 63.3449 41.6596Z" fill="white"/>
</svg>
