<svg width="40" height="40" viewBox="0 0 40 40" fill="none" xmlns="http://www.w3.org/2000/svg">
<circle cx="20" cy="20" r="20" fill="#FF8383"/>
<path d="M28.578 22.5446L28.5782 22.5445L28.5688 22.5352L20.9494 14.9157C20.6249 14.5913 20.0997 14.5912 19.7752 14.9156C19.7752 14.9157 19.7752 14.9157 19.7752 14.9157L12.1525 22.5351L12.1524 22.535L12.1434 22.5444C11.8321 22.8721 11.8353 23.394 12.1637 23.714L12.1636 23.714L12.1684 23.7186C12.4905 24.0242 12.9951 24.0242 13.3172 23.7186L13.3173 23.7187L13.3265 23.7095L20.3606 16.6786L27.3913 23.7094L27.3912 23.7095L27.4005 23.7184C27.7283 24.0297 28.2502 24.0265 28.5701 23.6981L28.5702 23.6981C28.8843 23.3755 28.8843 22.8675 28.578 22.5446Z" fill="black" stroke="black"/>
</svg>
